<svg width="400" height="299" viewBox="0 0 400 299" fill="none" xmlns="http://www.w3.org/2000/svg">
<path d="M200 298.048C285.666 298.048 355.112 293.994 355.112 288.992C355.112 283.991 285.666 279.936 200 279.936C114.334 279.936 44.888 283.991 44.888 288.992C44.888 293.994 114.334 298.048 200 298.048Z" fill="#F5F5F5"/>
<path d="M260.744 30.408H236.88C235.877 30.408 235.064 31.221 235.064 32.224V56.088C235.064 57.0909 235.877 57.904 236.88 57.904H260.744C261.747 57.904 262.56 57.0909 262.56 56.088V32.224C262.56 31.221 261.747 30.408 260.744 30.408Z" fill="#407BFF"/>
<g opacity="0.4">
<path d="M260.744 30.408H236.88C235.877 30.408 235.064 31.221 235.064 32.224V56.088C235.064 57.0909 235.877 57.904 236.88 57.904H260.744C261.747 57.904 262.56 57.0909 262.56 56.088V32.224C262.56 31.221 261.747 30.408 260.744 30.408Z" fill="white"/>
</g>
<path d="M245.12 42.704L240.32 44.456L245.12 46.192V48L238.304 45.4V43.544L245.12 40.944V42.704Z" fill="white"/>
<path d="M250.256 37.408H252.248L247.512 50.904H245.52L250.256 37.408Z" fill="white"/>
<path d="M259.32 43.528V45.384L252.504 48V46.208L257.304 44.472L252.504 42.72V40.944L259.32 43.528Z" fill="white"/>
<path d="M241.12 62.9279V69.5999H239.576V66.8559H236.536V69.5999H234.992V62.9199H236.536V65.5999H239.576V62.9679L241.12 62.9279Z" fill="#263238"/>
<path d="M244.096 64.184H241.952V62.928H247.776V64.184H245.64V69.6H244.096V64.184Z" fill="#263238"/>
<path d="M254.696 69.5999V65.5999L252.728 68.9039H252L250.04 65.7039V69.5999H248.592V62.9199H249.872L252.368 67.0719L254.832 62.9199H256.104V69.5999H254.696Z" fill="#263238"/>
<path d="M257.736 62.928H259.28V68.344H262.632V69.6H257.736V62.928Z" fill="#263238"/>
<g opacity="0.6">
<path d="M241.12 62.9279V69.5999H239.576V66.8559H236.536V69.5999H234.992V62.9199H236.536V65.5999H239.576V62.9679L241.12 62.9279Z" fill="white"/>
<path d="M244.096 64.184H241.952V62.928H247.776V64.184H245.64V69.6H244.096V64.184Z" fill="white"/>
<path d="M254.696 69.5999V65.5999L252.728 68.9039H252L250.04 65.7039V69.5999H248.592V62.9199H249.872L252.368 67.0719L254.832 62.9199H256.104V69.5999H254.696Z" fill="white"/>
<path d="M257.736 62.928H259.28V68.344H262.632V69.6H257.736V62.928Z" fill="white"/>
</g>
<path d="M319.552 45.064H295.688C294.685 45.064 293.872 45.877 293.872 46.88V70.744C293.872 71.7469 294.685 72.56 295.688 72.56H319.552C320.555 72.56 321.368 71.7469 321.368 70.744V46.88C321.368 45.877 320.555 45.064 319.552 45.064Z" fill="#407BFF"/>
<g opacity="0.4">
<path d="M319.552 45.064H295.688C294.685 45.064 293.872 45.877 293.872 46.88V70.744C293.872 71.7469 294.685 72.56 295.688 72.56H319.552C320.555 72.56 321.368 71.7469 321.368 70.744V46.88C321.368 45.877 320.555 45.064 319.552 45.064Z" fill="white"/>
</g>
<path d="M303.112 58.8079C303.768 59.0079 304.072 59.4239 304.072 60.4079V62.7039C304.054 62.8462 304.069 62.9907 304.115 63.1265C304.161 63.2623 304.237 63.3857 304.338 63.4875C304.439 63.5893 304.562 63.6667 304.698 63.7139C304.833 63.7612 304.978 63.7769 305.12 63.7599H305.376V65.5119H304.576C302.784 65.5119 301.872 64.5919 301.872 62.9439V60.3519C301.884 60.2643 301.877 60.175 301.85 60.0907C301.823 60.0063 301.778 59.9291 301.717 59.8646C301.656 59.8001 301.582 59.7501 301.499 59.7181C301.417 59.6862 301.328 59.6731 301.24 59.68H300.768V57.9279H301.24C301.328 57.9348 301.417 57.9217 301.499 57.8898C301.582 57.8578 301.656 57.8078 301.717 57.7433C301.778 57.6788 301.823 57.6016 301.85 57.5172C301.877 57.4329 301.884 57.3436 301.872 57.2559V54.6639C301.872 53.0159 302.784 52.0959 304.576 52.0959H305.376V53.8479H305.12C304.978 53.831 304.833 53.8467 304.698 53.8939C304.562 53.9411 304.439 54.0186 304.338 54.1204C304.237 54.2222 304.161 54.3456 304.115 54.4814C304.069 54.6172 304.054 54.7617 304.072 54.9039V57.1999C304.072 58.1919 303.768 58.6079 303.112 58.8079Z" fill="white"/>
<path d="M314.504 57.9359V59.6879H314.032C313.944 59.6811 313.855 59.6942 313.773 59.7261C313.69 59.7581 313.616 59.8081 313.555 59.8726C313.494 59.9371 313.449 60.0143 313.422 60.0987C313.395 60.183 313.388 60.2723 313.4 60.3599V62.9519C313.4 64.5999 312.48 65.5199 310.696 65.5199H309.896V63.7679H310.152C310.294 63.7849 310.439 63.7691 310.574 63.7219C310.71 63.6747 310.832 63.5973 310.933 63.4955C311.034 63.3937 311.111 63.2703 311.157 63.1345C311.203 62.9987 311.218 62.8542 311.2 62.7119V60.4159C311.2 59.4239 311.496 59.0079 312.16 58.8159C311.496 58.6159 311.2 58.1999 311.2 57.2159V54.9199C311.218 54.7777 311.203 54.6332 311.157 54.4974C311.111 54.3616 311.034 54.2382 310.933 54.1364C310.832 54.0346 310.71 53.9571 310.574 53.9099C310.439 53.8627 310.294 53.847 310.152 53.8639H309.896V52.1119H310.696C312.48 52.1119 313.4 53.0319 313.4 54.6799V57.2719C313.388 57.3596 313.395 57.4489 313.422 57.5332C313.449 57.6176 313.494 57.6948 313.555 57.7593C313.616 57.8237 313.69 57.8738 313.773 57.9058C313.855 57.9377 313.944 57.9508 314.032 57.9439L314.504 57.9359Z" fill="white"/>
<path d="M298.4 81.024C298.44 80.2991 298.693 79.6021 299.128 79.0208C299.562 78.4394 300.159 77.9996 300.843 77.7567C301.528 77.5139 302.268 77.4788 302.972 77.6559C303.676 77.833 304.312 78.2143 304.8 78.752L303.808 79.672C303.606 79.421 303.35 79.2187 303.059 79.0802C302.769 78.9417 302.45 78.8706 302.128 78.872C301.836 78.8541 301.543 78.8962 301.268 78.9957C300.993 79.0952 300.741 79.2499 300.528 79.4504C300.315 79.6508 300.145 79.8928 300.029 80.1614C299.913 80.4299 299.853 80.7194 299.853 81.012C299.853 81.3046 299.913 81.5941 300.029 81.8626C300.145 82.1312 300.315 82.3732 300.528 82.5736C300.741 82.7741 300.993 82.9288 301.268 83.0283C301.543 83.1278 301.836 83.1699 302.128 83.152C302.45 83.1529 302.768 83.0814 303.059 82.943C303.35 82.8045 303.606 82.6026 303.808 82.352L304.8 83.264C304.314 83.8051 303.679 84.1899 302.975 84.3695C302.27 84.5492 301.528 84.5157 300.843 84.2732C300.157 84.0307 299.559 83.5902 299.124 83.0075C298.689 82.4248 298.437 81.7261 298.4 81V81.024Z" fill="#263238"/>
<path d="M305.216 83.7119L305.736 82.5439C306.387 82.9885 307.155 83.2306 307.944 83.2399C308.856 83.2399 309.232 82.9359 309.232 82.5279C309.232 81.2719 305.344 82.1359 305.344 79.6559C305.344 78.5199 306.264 77.5679 308.16 77.5679C308.972 77.5543 309.774 77.7587 310.48 78.1599L310.008 79.3359C309.444 79.0059 308.805 78.8268 308.152 78.8159C307.24 78.8159 306.88 79.1519 306.88 79.5759C306.88 80.8079 310.768 79.9599 310.768 82.4079C310.768 83.5279 309.84 84.4799 307.936 84.4799C306.973 84.5027 306.025 84.2351 305.216 83.7119Z" fill="#263238"/>
<path d="M311.304 83.7119L311.832 82.5439C312.482 82.992 313.251 83.2345 314.04 83.2399C314.952 83.2399 315.328 82.9359 315.328 82.5279C315.328 81.2719 311.44 82.1359 311.44 79.6559C311.44 78.5199 312.36 77.5679 314.256 77.5679C315.068 77.5555 315.869 77.7598 316.576 78.1599L316.096 79.3359C315.536 79.0053 314.899 78.8261 314.248 78.8159C313.328 78.8159 312.976 79.1519 312.976 79.5759C312.976 80.8079 316.864 79.9599 316.864 82.4079C316.864 83.5279 315.936 84.4799 314.024 84.4799C313.061 84.5027 312.113 84.2351 311.304 83.7119Z" fill="#263238"/>
<g opacity="0.6">
<path d="M298.4 81.024C298.44 80.2991 298.693 79.6021 299.128 79.0208C299.562 78.4394 300.159 77.9996 300.843 77.7567C301.528 77.5139 302.268 77.4788 302.972 77.6559C303.676 77.833 304.312 78.2143 304.8 78.752L303.808 79.672C303.606 79.421 303.35 79.2187 303.059 79.0802C302.769 78.9417 302.45 78.8706 302.128 78.872C301.836 78.8541 301.543 78.8962 301.268 78.9957C300.993 79.0952 300.741 79.2499 300.528 79.4504C300.315 79.6508 300.145 79.8928 300.029 80.1614C299.913 80.4299 299.853 80.7194 299.853 81.012C299.853 81.3046 299.913 81.5941 300.029 81.8626C300.145 82.1312 300.315 82.3732 300.528 82.5736C300.741 82.7741 300.993 82.9288 301.268 83.0283C301.543 83.1278 301.836 83.1699 302.128 83.152C302.45 83.1529 302.768 83.0814 303.059 82.943C303.35 82.8045 303.606 82.6026 303.808 82.352L304.8 83.264C304.314 83.8051 303.679 84.1899 302.975 84.3695C302.27 84.5492 301.528 84.5157 300.843 84.2732C300.157 84.0307 299.559 83.5902 299.124 83.0075C298.689 82.4248 298.437 81.7261 298.4 81V81.024Z" fill="white"/>
<path d="M305.216 83.712L305.736 82.544C306.387 82.9886 307.156 83.2307 307.944 83.24C308.856 83.24 309.232 82.936 309.232 82.528C309.232 81.272 305.344 82.136 305.344 79.656C305.344 78.52 306.264 77.568 308.16 77.568C308.972 77.5544 309.774 77.7588 310.48 78.16L310.008 79.336C309.444 79.0061 308.805 78.827 308.152 78.816C307.24 78.816 306.88 79.152 306.88 79.576C306.88 80.808 310.768 79.96 310.768 82.408C310.768 83.528 309.84 84.48 307.936 84.48C306.973 84.5028 306.025 84.2352 305.216 83.712Z" fill="white"/>
<path d="M311.304 83.712L311.832 82.544C312.482 82.9921 313.251 83.2346 314.04 83.24C314.952 83.24 315.328 82.936 315.328 82.528C315.328 81.272 311.44 82.136 311.44 79.656C311.44 78.52 312.36 77.568 314.256 77.568C315.068 77.5556 315.869 77.7599 316.576 78.16L316.096 79.336C315.536 79.0054 314.899 78.8262 314.248 78.816C313.328 78.816 312.976 79.152 312.976 79.576C312.976 80.808 316.864 79.96 316.864 82.408C316.864 83.528 315.936 84.48 314.024 84.48C313.061 84.5028 312.113 84.2352 311.304 83.712Z" fill="white"/>
</g>
<path d="M216.848 42.384H118.84V113.328H216.848V42.384Z" fill="black"/>
<path opacity="0.9" d="M216.848 42.384H118.84V113.328H216.848V42.384Z" fill="white"/>
<path opacity="0.1" d="M132.488 42.384H118.84V113.328H132.488V42.384Z" fill="black"/>
<path d="M216.848 42.384H118.84V49.016H216.848V42.384Z" fill="#407BFF"/>
<g opacity="0.2">
<path d="M158.168 59.0241H140.32C140.108 59.0241 139.904 58.9398 139.754 58.7898C139.604 58.6397 139.52 58.4362 139.52 58.2241C139.52 58.0119 139.604 57.8084 139.754 57.6584C139.904 57.5084 140.108 57.4241 140.32 57.4241H158.168C158.38 57.4241 158.584 57.5084 158.734 57.6584C158.884 57.8084 158.968 58.0119 158.968 58.2241C158.968 58.4362 158.884 58.6397 158.734 58.7898C158.584 58.9398 158.38 59.0241 158.168 59.0241Z" fill="black"/>
<path d="M197.6 59.0241H162.92C162.708 59.0241 162.504 58.9398 162.354 58.7898C162.204 58.6397 162.12 58.4362 162.12 58.2241C162.12 58.0119 162.204 57.8084 162.354 57.6584C162.504 57.5084 162.708 57.4241 162.92 57.4241H197.6C197.812 57.4241 198.016 57.5084 198.166 57.6584C198.316 57.8084 198.4 58.0119 198.4 58.2241C198.4 58.4362 198.316 58.6397 198.166 58.7898C198.016 58.9398 197.812 59.0241 197.6 59.0241Z" fill="black"/>
<path d="M189.344 64.2481H142.72C142.508 64.2481 142.304 64.1638 142.154 64.0138C142.004 63.8637 141.92 63.6602 141.92 63.4481C141.92 63.2359 142.004 63.0324 142.154 62.8824C142.304 62.7324 142.508 62.6481 142.72 62.6481H189.344C189.556 62.6481 189.76 62.7324 189.91 62.8824C190.06 63.0324 190.144 63.2359 190.144 63.4481C190.144 63.6602 190.06 63.8637 189.91 64.0138C189.76 64.1638 189.556 64.2481 189.344 64.2481Z" fill="black"/>
<path d="M170.352 69.464H140.32C140.108 69.464 139.904 69.3797 139.754 69.2297C139.604 69.0797 139.52 68.8762 139.52 68.664C139.52 68.4518 139.604 68.2484 139.754 68.0983C139.904 67.9483 140.108 67.864 140.32 67.864H170.352C170.564 67.864 170.768 67.9483 170.918 68.0983C171.068 68.2484 171.152 68.4518 171.152 68.664C171.152 68.8762 171.068 69.0797 170.918 69.2297C170.768 69.3797 170.564 69.464 170.352 69.464Z" fill="black"/>
<path d="M197.6 69.464H176.08C175.868 69.464 175.664 69.3797 175.514 69.2297C175.364 69.0797 175.28 68.8762 175.28 68.664C175.28 68.4518 175.364 68.2484 175.514 68.0983C175.664 67.9483 175.868 67.864 176.08 67.864H197.6C197.812 67.864 198.016 67.9483 198.166 68.0983C198.316 68.2484 198.4 68.4518 198.4 68.664C198.4 68.8762 198.316 69.0797 198.166 69.2297C198.016 69.3797 197.812 69.464 197.6 69.464Z" fill="black"/>
<path d="M156.904 74.688H140.32C140.108 74.688 139.904 74.6037 139.754 74.4537C139.604 74.3037 139.52 74.1002 139.52 73.888C139.52 73.6758 139.604 73.4724 139.754 73.3223C139.904 73.1723 140.108 73.088 140.32 73.088H156.904C157.116 73.088 157.32 73.1723 157.47 73.3223C157.62 73.4724 157.704 73.6758 157.704 73.888C157.704 74.1002 157.62 74.3037 157.47 74.4537C157.32 74.6037 157.116 74.688 156.904 74.688Z" fill="black"/>
<path d="M188.392 74.688H162.28C162.068 74.688 161.864 74.6037 161.714 74.4537C161.564 74.3037 161.48 74.1002 161.48 73.888C161.48 73.6758 161.564 73.4724 161.714 73.3223C161.864 73.1723 162.068 73.088 162.28 73.088H188.392C188.604 73.088 188.808 73.1723 188.958 73.3223C189.108 73.4724 189.192 73.6758 189.192 73.888C189.192 74.1002 189.108 74.3037 188.958 74.4537C188.808 74.6037 188.604 74.688 188.392 74.688Z" fill="black"/>
<path d="M165.032 79.912H142.72C142.508 79.912 142.304 79.8277 142.154 79.6777C142.004 79.5277 141.92 79.3242 141.92 79.112C141.92 78.8998 142.004 78.6964 142.154 78.5463C142.304 78.3963 142.508 78.312 142.72 78.312H165.032C165.244 78.312 165.448 78.3963 165.598 78.5463C165.748 78.6964 165.832 78.8998 165.832 79.112C165.832 79.3242 165.748 79.5277 165.598 79.6777C165.448 79.8277 165.244 79.912 165.032 79.912Z" fill="black"/>
<path d="M167.824 85.136H142.72C142.508 85.136 142.304 85.0517 142.154 84.9017C142.004 84.7517 141.92 84.5482 141.92 84.336C141.92 84.1238 142.004 83.9204 142.154 83.7703C142.304 83.6203 142.508 83.536 142.72 83.536H167.824C168.036 83.536 168.24 83.6203 168.39 83.7703C168.54 83.9204 168.624 84.1238 168.624 84.336C168.624 84.5482 168.54 84.7517 168.39 84.9017C168.24 85.0517 168.036 85.136 167.824 85.136Z" fill="black"/>
<path d="M197.6 85.136H172C171.788 85.136 171.584 85.0517 171.434 84.9017C171.284 84.7517 171.2 84.5482 171.2 84.336C171.2 84.1238 171.284 83.9204 171.434 83.7703C171.584 83.6203 171.788 83.536 172 83.536H197.6C197.812 83.536 198.016 83.6203 198.166 83.7703C198.316 83.9204 198.4 84.1238 198.4 84.336C198.4 84.5482 198.316 84.7517 198.166 84.9017C198.016 85.0517 197.812 85.136 197.6 85.136Z" fill="black"/>
<path d="M154.688 90.3521H140.288C140.076 90.3521 139.872 90.2678 139.722 90.1178C139.572 89.9677 139.488 89.7642 139.488 89.5521C139.488 89.3399 139.572 89.1364 139.722 88.9864C139.872 88.8364 140.076 88.7521 140.288 88.7521H154.688C154.9 88.7521 155.104 88.8364 155.254 88.9864C155.404 89.1364 155.488 89.3399 155.488 89.5521C155.488 89.7642 155.404 89.9677 155.254 90.1178C155.104 90.2678 154.9 90.3521 154.688 90.3521Z" fill="black"/>
<path d="M197.6 90.3521H159.592C159.38 90.3521 159.176 90.2678 159.026 90.1178C158.876 89.9677 158.792 89.7642 158.792 89.5521C158.792 89.3399 158.876 89.1364 159.026 88.9864C159.176 88.8364 159.38 88.7521 159.592 88.7521H197.6C197.812 88.7521 198.016 88.8364 198.166 88.9864C198.316 89.1364 198.4 89.3399 198.4 89.5521C198.4 89.7642 198.316 89.9677 198.166 90.1178C198.016 90.2678 197.812 90.3521 197.6 90.3521Z" fill="black"/>
<path d="M167.664 95.5761H142.72C142.508 95.5761 142.304 95.4918 142.154 95.3418C142.004 95.1917 141.92 94.9882 141.92 94.7761C141.92 94.5639 142.004 94.3604 142.154 94.2104C142.304 94.0604 142.508 93.9761 142.72 93.9761H167.664C167.876 93.9761 168.08 94.0604 168.23 94.2104C168.38 94.3604 168.464 94.5639 168.464 94.7761C168.464 94.9882 168.38 95.1917 168.23 95.3418C168.08 95.4918 167.876 95.5761 167.664 95.5761Z" fill="black"/>
<path d="M187.288 95.5761H171.144C170.932 95.5761 170.728 95.4918 170.578 95.3418C170.428 95.1917 170.344 94.9882 170.344 94.7761C170.344 94.5639 170.428 94.3604 170.578 94.2104C170.728 94.0604 170.932 93.9761 171.144 93.9761H187.288C187.5 93.9761 187.704 94.0604 187.854 94.2104C188.004 94.3604 188.088 94.5639 188.088 94.7761C188.088 94.9882 188.004 95.1917 187.854 95.3418C187.704 95.4918 187.5 95.5761 187.288 95.5761Z" fill="black"/>
<path d="M171.432 100.8H142.72C142.508 100.8 142.304 100.716 142.154 100.566C142.004 100.416 141.92 100.212 141.92 100C141.92 99.7879 142.004 99.5844 142.154 99.4344C142.304 99.2844 142.508 99.2001 142.72 99.2001H171.432C171.644 99.2001 171.848 99.2844 171.998 99.4344C172.148 99.5844 172.232 99.7879 172.232 100C172.232 100.212 172.148 100.416 171.998 100.566C171.848 100.716 171.644 100.8 171.432 100.8Z" fill="black"/>
</g>
<path opacity="0.4" d="M212.632 47.112C213.388 47.112 214 46.4995 214 45.744C214 44.9885 213.388 44.376 212.632 44.376C211.877 44.376 211.264 44.9885 211.264 45.744C211.264 46.4995 211.877 47.112 212.632 47.112Z" fill="white"/>
<path opacity="0.4" d="M207.824 47.112C208.58 47.112 209.192 46.4995 209.192 45.744C209.192 44.9885 208.58 44.376 207.824 44.376C207.069 44.376 206.456 44.9885 206.456 45.744C206.456 46.4995 207.069 47.112 207.824 47.112Z" fill="white"/>
<path opacity="0.4" d="M203.024 47.112C203.78 47.112 204.392 46.4995 204.392 45.744C204.392 44.9885 203.78 44.376 203.024 44.376C202.269 44.376 201.656 44.9885 201.656 45.744C201.656 46.4995 202.269 47.112 203.024 47.112Z" fill="white"/>
<g opacity="0.2">
<path d="M125.904 59.0241C125.692 59.0241 125.488 58.9398 125.338 58.7898C125.188 58.6397 125.104 58.4362 125.104 58.2241C125.104 58.0119 125.188 57.8084 125.338 57.6584C125.488 57.5084 125.692 57.4241 125.904 57.4241C126.116 57.4241 126.32 57.5084 126.47 57.6584C126.62 57.8084 126.704 58.0119 126.704 58.2241C126.704 58.4362 126.62 58.6397 126.47 58.7898C126.32 58.9398 126.116 59.0241 125.904 59.0241Z" fill="black"/>
<path d="M125.904 64.2481C125.692 64.2481 125.489 64.1638 125.339 64.0138C125.188 63.8637 125.104 63.6602 125.104 63.4481C125.104 63.2359 125.188 63.0324 125.339 62.8824C125.489 62.7324 125.692 62.6481 125.904 62.6481C126.116 62.6481 126.32 62.7324 126.47 62.8824C126.62 63.0324 126.704 63.2359 126.704 63.4481C126.704 63.6602 126.62 63.8637 126.47 64.0138C126.32 64.1638 126.116 64.2481 125.904 64.2481Z" fill="black"/>
<path d="M125.904 69.464C125.692 69.464 125.489 69.3797 125.339 69.2297C125.188 69.0797 125.104 68.8762 125.104 68.664C125.104 68.4518 125.188 68.2484 125.339 68.0983C125.489 67.9483 125.692 67.864 125.904 67.864C126.116 67.864 126.32 67.9483 126.47 68.0983C126.62 68.2484 126.704 68.4518 126.704 68.664C126.704 68.8762 126.62 69.0797 126.47 69.2297C126.32 69.3797 126.116 69.464 125.904 69.464Z" fill="black"/>
<path d="M125.904 74.688C125.692 74.688 125.489 74.6037 125.339 74.4537C125.188 74.3037 125.104 74.1002 125.104 73.888C125.104 73.6758 125.188 73.4724 125.339 73.3223C125.489 73.1723 125.692 73.088 125.904 73.088C126.116 73.088 126.32 73.1723 126.47 73.3223C126.62 73.4724 126.704 73.6758 126.704 73.888C126.704 74.1002 126.62 74.3037 126.47 74.4537C126.32 74.6037 126.116 74.688 125.904 74.688Z" fill="black"/>
<path d="M125.904 79.912C125.692 79.912 125.489 79.8277 125.339 79.6777C125.188 79.5277 125.104 79.3242 125.104 79.112C125.104 78.8998 125.188 78.6964 125.339 78.5463C125.489 78.3963 125.692 78.312 125.904 78.312C126.116 78.312 126.32 78.3963 126.47 78.5463C126.62 78.6964 126.704 78.8998 126.704 79.112C126.704 79.3242 126.62 79.5277 126.47 79.6777C126.32 79.8277 126.116 79.912 125.904 79.912Z" fill="black"/>
<path d="M125.904 85.136C125.692 85.136 125.489 85.0517 125.339 84.9017C125.188 84.7517 125.104 84.5482 125.104 84.336C125.104 84.1238 125.188 83.9204 125.339 83.7703C125.489 83.6203 125.692 83.536 125.904 83.536C126.116 83.536 126.32 83.6203 126.47 83.7703C126.62 83.9204 126.704 84.1238 126.704 84.336C126.704 84.5482 126.62 84.7517 126.47 84.9017C126.32 85.0517 126.116 85.136 125.904 85.136Z" fill="black"/>
<path d="M125.904 90.3521C125.692 90.3521 125.489 90.2678 125.339 90.1178C125.188 89.9677 125.104 89.7642 125.104 89.5521C125.104 89.3399 125.188 89.1364 125.339 88.9864C125.489 88.8364 125.692 88.7521 125.904 88.7521C126.116 88.7521 126.32 88.8364 126.47 88.9864C126.62 89.1364 126.704 89.3399 126.704 89.5521C126.704 89.7642 126.62 89.9677 126.47 90.1178C126.32 90.2678 126.116 90.3521 125.904 90.3521Z" fill="black"/>
<path d="M125.904 95.5761C125.692 95.5761 125.489 95.4918 125.339 95.3418C125.188 95.1917 125.104 94.9882 125.104 94.7761C125.104 94.5639 125.188 94.3604 125.339 94.2104C125.489 94.0604 125.692 93.9761 125.904 93.9761C126.116 93.9761 126.32 94.0604 126.47 94.2104C126.62 94.3604 126.704 94.5639 126.704 94.7761C126.704 94.9882 126.62 95.1917 126.47 95.3418C126.32 95.4918 126.116 95.5761 125.904 95.5761Z" fill="black"/>
<path d="M125.904 100.8C125.692 100.8 125.489 100.716 125.339 100.566C125.188 100.416 125.104 100.212 125.104 100C125.104 99.7879 125.188 99.5844 125.339 99.4344C125.489 99.2844 125.692 99.2001 125.904 99.2001C126.116 99.2001 126.32 99.2844 126.47 99.4344C126.62 99.5844 126.704 99.7879 126.704 100C126.704 100.212 126.62 100.416 126.47 100.566C126.32 100.716 126.116 100.8 125.904 100.8Z" fill="black"/>
</g>
<path d="M305.616 100.272H177.192V182.504H305.616V100.272Z" fill="#263238"/>
<path opacity="0.9" d="M305.616 100.272H177.192V182.504H305.616V100.272Z" fill="white"/>
<path opacity="0.1" d="M197.224 100.272H177.192V182.504H197.224V100.272Z" fill="black"/>
<path d="M305.616 100.272H177.192V106.904H305.616V100.272Z" fill="#407BFF"/>
<path d="M186.264 114.176L184.136 114.976L186.264 115.776V116.576L183.224 115.416V114.616L186.264 113.464V114.176Z" fill="white"/>
<path d="M188.56 111.808H189.448L187.336 117.832H186.448L188.56 111.808Z" fill="white"/>
<path d="M192.608 114.536V115.336L189.568 116.496V115.696L191.696 114.896L189.568 114.096V113.296L192.608 114.536Z" fill="white"/>
<g opacity="0.2">
<path d="M192.16 123.32H183.456C183.244 123.32 183.04 123.236 182.89 123.086C182.74 122.936 182.656 122.732 182.656 122.52C182.656 122.308 182.74 122.104 182.89 121.954C183.04 121.804 183.244 121.72 183.456 121.72H192.16C192.372 121.72 192.576 121.804 192.726 121.954C192.876 122.104 192.96 122.308 192.96 122.52C192.96 122.732 192.876 122.936 192.726 123.086C192.576 123.236 192.372 123.32 192.16 123.32Z" fill="black"/>
<path d="M192.16 128.536H183.456C183.244 128.536 183.041 128.452 182.891 128.302C182.74 128.152 182.656 127.948 182.656 127.736C182.656 127.524 182.74 127.32 182.891 127.17C183.041 127.02 183.244 126.936 183.456 126.936H192.16C192.372 126.936 192.576 127.02 192.726 127.17C192.876 127.32 192.96 127.524 192.96 127.736C192.96 127.948 192.876 128.152 192.726 128.302C192.576 128.452 192.372 128.536 192.16 128.536Z" fill="black"/>
<path d="M192.16 133.76H183.456C183.244 133.76 183.041 133.676 182.891 133.526C182.74 133.376 182.656 133.172 182.656 132.96C182.656 132.748 182.74 132.544 182.891 132.394C183.041 132.244 183.244 132.16 183.456 132.16H192.16C192.372 132.16 192.576 132.244 192.726 132.394C192.876 132.544 192.96 132.748 192.96 132.96C192.96 133.172 192.876 133.376 192.726 133.526C192.576 133.676 192.372 133.76 192.16 133.76Z" fill="black"/>
<path d="M192.16 138.984H183.456C183.244 138.984 183.041 138.9 182.891 138.75C182.74 138.6 182.656 138.396 182.656 138.184C182.656 137.972 182.74 137.768 182.891 137.618C183.041 137.468 183.244 137.384 183.456 137.384H192.16C192.372 137.384 192.576 137.468 192.726 137.618C192.876 137.768 192.96 137.972 192.96 138.184C192.96 138.396 192.876 138.6 192.726 138.75C192.576 138.9 192.372 138.984 192.16 138.984Z" fill="black"/>
<path d="M192.16 144.208H183.456C183.244 144.208 183.041 144.124 182.891 143.974C182.74 143.824 182.656 143.62 182.656 143.408C182.656 143.196 182.74 142.992 182.891 142.842C183.041 142.692 183.244 142.608 183.456 142.608H192.16C192.372 142.608 192.576 142.692 192.726 142.842C192.876 142.992 192.96 143.196 192.96 143.408C192.96 143.62 192.876 143.824 192.726 143.974C192.576 144.124 192.372 144.208 192.16 144.208Z" fill="black"/>
<path d="M192.16 149.424H183.456C183.244 149.424 183.041 149.34 182.891 149.19C182.74 149.04 182.656 148.836 182.656 148.624C182.656 148.412 182.74 148.208 182.891 148.058C183.041 147.908 183.244 147.824 183.456 147.824H192.16C192.372 147.824 192.576 147.908 192.726 148.058C192.876 148.208 192.96 148.412 192.96 148.624C192.96 148.836 192.876 149.04 192.726 149.19C192.576 149.34 192.372 149.424 192.16 149.424Z" fill="black"/>
<path d="M192.16 154.648H183.456C183.244 154.648 183.041 154.564 182.891 154.414C182.74 154.264 182.656 154.06 182.656 153.848C182.656 153.636 182.74 153.432 182.891 153.282C183.041 153.132 183.244 153.048 183.456 153.048H192.16C192.372 153.048 192.576 153.132 192.726 153.282C192.876 153.432 192.96 153.636 192.96 153.848C192.96 154.06 192.876 154.264 192.726 154.414C192.576 154.564 192.372 154.648 192.16 154.648Z" fill="black"/>
<path d="M192.16 159.872H183.456C183.244 159.872 183.041 159.788 182.891 159.638C182.74 159.488 182.656 159.284 182.656 159.072C182.656 158.86 182.74 158.656 182.891 158.506C183.041 158.356 183.244 158.272 183.456 158.272H192.16C192.372 158.272 192.576 158.356 192.726 158.506C192.876 158.656 192.96 158.86 192.96 159.072C192.96 159.284 192.876 159.488 192.726 159.638C192.576 159.788 192.372 159.872 192.16 159.872Z" fill="black"/>
<path d="M192.16 165.096H183.456C183.244 165.096 183.041 165.012 182.891 164.862C182.74 164.712 182.656 164.508 182.656 164.296C182.656 164.084 182.74 163.88 182.891 163.73C183.041 163.58 183.244 163.496 183.456 163.496H192.16C192.372 163.496 192.576 163.58 192.726 163.73C192.876 163.88 192.96 164.084 192.96 164.296C192.96 164.508 192.876 164.712 192.726 164.862C192.576 165.012 192.372 165.096 192.16 165.096Z" fill="black"/>
</g>
<path d="M217.32 123.32H199.472C199.26 123.32 199.056 123.236 198.906 123.086C198.756 122.936 198.672 122.732 198.672 122.52C198.672 122.308 198.756 122.104 198.906 121.954C199.056 121.804 199.26 121.72 199.472 121.72H217.32C217.532 121.72 217.736 121.804 217.886 121.954C218.036 122.104 218.12 122.308 218.12 122.52C218.12 122.732 218.036 122.936 217.886 123.086C217.736 123.236 217.532 123.32 217.32 123.32Z" fill="#407BFF"/>
<path d="M268.592 123.32H222.072C221.86 123.32 221.657 123.236 221.507 123.086C221.357 122.936 221.272 122.732 221.272 122.52C221.272 122.308 221.357 122.104 221.507 121.954C221.657 121.804 221.86 121.72 222.072 121.72H268.592C268.804 121.72 269.008 121.804 269.158 121.954C269.308 122.104 269.392 122.308 269.392 122.52C269.392 122.732 269.308 122.936 269.158 123.086C269.008 123.236 268.804 123.32 268.592 123.32Z" fill="#263238"/>
<g opacity="0.2">
<path d="M289.824 123.32H276.344C276.132 123.32 275.929 123.236 275.779 123.086C275.629 122.936 275.544 122.732 275.544 122.52C275.544 122.308 275.629 122.104 275.779 121.954C275.929 121.804 276.132 121.72 276.344 121.72H289.824C290.036 121.72 290.24 121.804 290.39 121.954C290.54 122.104 290.624 122.308 290.624 122.52C290.624 122.732 290.54 122.936 290.39 123.086C290.24 123.236 290.036 123.32 289.824 123.32Z" fill="#263238"/>
</g>
<g opacity="0.2">
<path d="M248.496 128.536H201.872C201.66 128.536 201.456 128.452 201.306 128.302C201.156 128.152 201.072 127.948 201.072 127.736C201.072 127.524 201.156 127.32 201.306 127.17C201.456 127.02 201.66 126.936 201.872 126.936H248.496C248.708 126.936 248.912 127.02 249.062 127.17C249.212 127.32 249.296 127.524 249.296 127.736C249.296 127.948 249.212 128.152 249.062 128.302C248.912 128.452 248.708 128.536 248.496 128.536Z" fill="#263238"/>
</g>
<path d="M296.224 128.536H252.8C252.588 128.536 252.385 128.452 252.235 128.302C252.085 128.152 252 127.948 252 127.736C252 127.524 252.085 127.32 252.235 127.17C252.385 127.02 252.588 126.936 252.8 126.936H296.256C296.468 126.936 296.672 127.02 296.822 127.17C296.972 127.32 297.056 127.524 297.056 127.736C297.056 127.948 296.972 128.152 296.822 128.302C296.672 128.452 296.468 128.536 296.256 128.536H296.224Z" fill="#407BFF"/>
<path d="M229.504 133.76H201.872C201.66 133.76 201.456 133.676 201.306 133.526C201.156 133.376 201.072 133.172 201.072 132.96C201.072 132.748 201.156 132.544 201.306 132.394C201.456 132.244 201.66 132.16 201.872 132.16H229.504C229.716 132.16 229.92 132.244 230.07 132.394C230.22 132.544 230.304 132.748 230.304 132.96C230.304 133.172 230.22 133.376 230.07 133.526C229.92 133.676 229.716 133.76 229.504 133.76Z" fill="#263238"/>
<path d="M262.4 133.76H235.2C234.988 133.76 234.785 133.676 234.634 133.526C234.484 133.376 234.4 133.172 234.4 132.96C234.4 132.748 234.484 132.544 234.634 132.394C234.785 132.244 234.988 132.16 235.2 132.16H262.4C262.612 132.16 262.816 132.244 262.966 132.394C263.116 132.544 263.2 132.748 263.2 132.96C263.2 133.172 263.116 133.376 262.966 133.526C262.816 133.676 262.612 133.76 262.4 133.76Z" fill="#407BFF"/>
<path d="M296.224 133.76H266.848C266.636 133.76 266.433 133.676 266.283 133.526C266.133 133.376 266.048 133.172 266.048 132.96C266.048 132.748 266.133 132.544 266.283 132.394C266.433 132.244 266.636 132.16 266.848 132.16H296.224C296.436 132.16 296.64 132.244 296.79 132.394C296.94 132.544 297.024 132.748 297.024 132.96C297.024 133.172 296.94 133.376 296.79 133.526C296.64 133.676 296.436 133.76 296.224 133.76Z" fill="#263238"/>
<path d="M232.064 138.984H215.48C215.268 138.984 215.065 138.9 214.915 138.75C214.765 138.6 214.68 138.396 214.68 138.184C214.68 137.972 214.765 137.768 214.915 137.618C215.065 137.468 215.268 137.384 215.48 137.384H232.064C232.276 137.384 232.48 137.468 232.63 137.618C232.78 137.768 232.864 137.972 232.864 138.184C232.864 138.396 232.78 138.6 232.63 138.75C232.48 138.9 232.276 138.984 232.064 138.984Z" fill="#263238"/>
<path d="M255.552 138.984H237.448C237.236 138.984 237.033 138.9 236.883 138.75C236.733 138.6 236.648 138.396 236.648 138.184C236.648 137.972 236.733 137.768 236.883 137.618C237.033 137.468 237.236 137.384 237.448 137.384H255.552C255.764 137.384 255.968 137.468 256.118 137.618C256.268 137.768 256.352 137.972 256.352 138.184C256.352 138.396 256.268 138.6 256.118 138.75C255.968 138.9 255.764 138.984 255.552 138.984Z" fill="#263238"/>
<g opacity="0.2">
<path d="M289.024 138.984H259.664C259.452 138.984 259.249 138.9 259.099 138.75C258.948 138.6 258.864 138.396 258.864 138.184C258.864 137.972 258.948 137.768 259.099 137.618C259.249 137.468 259.452 137.384 259.664 137.384H289.024C289.236 137.384 289.44 137.468 289.59 137.618C289.74 137.768 289.824 137.972 289.824 138.184C289.824 138.396 289.74 138.6 289.59 138.75C289.44 138.9 289.236 138.984 289.024 138.984Z" fill="#263238"/>
</g>
<g opacity="0.2">
<path d="M224.184 144.208H201.872C201.66 144.208 201.456 144.124 201.306 143.974C201.156 143.824 201.072 143.62 201.072 143.408C201.072 143.196 201.156 142.992 201.306 142.842C201.456 142.692 201.66 142.608 201.872 142.608H224.184C224.396 142.608 224.6 142.692 224.75 142.842C224.9 142.992 224.984 143.196 224.984 143.408C224.984 143.62 224.9 143.824 224.75 143.974C224.6 144.124 224.396 144.208 224.184 144.208Z" fill="#263238"/>
</g>
<path d="M226.976 149.424H201.872C201.66 149.424 201.456 149.34 201.306 149.19C201.156 149.04 201.072 148.836 201.072 148.624C201.072 148.412 201.156 148.208 201.306 148.058C201.456 147.908 201.66 147.824 201.872 147.824H226.976C227.188 147.824 227.392 147.908 227.542 148.058C227.692 148.208 227.776 148.412 227.776 148.624C227.776 148.836 227.692 149.04 227.542 149.19C227.392 149.34 227.188 149.424 226.976 149.424Z" fill="#407BFF"/>
<path d="M268.912 149.424H231.088C230.876 149.424 230.673 149.34 230.523 149.19C230.373 149.04 230.288 148.836 230.288 148.624C230.288 148.412 230.373 148.208 230.523 148.058C230.673 147.908 230.876 147.824 231.088 147.824H268.912C269.125 147.824 269.328 147.908 269.478 148.058C269.628 148.208 269.712 148.412 269.712 148.624C269.712 148.836 269.628 149.04 269.478 149.19C269.328 149.34 269.125 149.424 268.912 149.424Z" fill="#263238"/>
<path d="M296.224 149.424H273.496C273.284 149.424 273.081 149.34 272.93 149.19C272.78 149.04 272.696 148.836 272.696 148.624C272.696 148.412 272.78 148.208 272.93 148.058C273.081 147.908 273.284 147.824 273.496 147.824H296.224C296.436 147.824 296.64 147.908 296.79 148.058C296.94 148.208 297.024 148.412 297.024 148.624C297.024 148.836 296.94 149.04 296.79 149.19C296.64 149.34 296.436 149.424 296.224 149.424Z" fill="#263238"/>
<g opacity="0.2">
<path d="M224.248 154.648H209.848C209.636 154.648 209.433 154.564 209.283 154.414C209.133 154.264 209.048 154.06 209.048 153.848C209.048 153.636 209.133 153.432 209.283 153.282C209.433 153.132 209.636 153.048 209.848 153.048H224.248C224.46 153.048 224.664 153.132 224.814 153.282C224.964 153.432 225.048 153.636 225.048 153.848C225.048 154.06 224.964 154.264 224.814 154.414C224.664 154.564 224.46 154.648 224.248 154.648Z" fill="#263238"/>
</g>
<g opacity="0.2">
<path d="M256.72 154.648H229.152C228.94 154.648 228.737 154.564 228.587 154.414C228.437 154.264 228.352 154.06 228.352 153.848C228.352 153.636 228.437 153.432 228.587 153.282C228.737 153.132 228.94 153.048 229.152 153.048H256.72C256.932 153.048 257.136 153.132 257.286 153.282C257.436 153.432 257.52 153.636 257.52 153.848C257.52 154.06 257.436 154.264 257.286 154.414C257.136 154.564 256.932 154.648 256.72 154.648Z" fill="#263238"/>
</g>
<path d="M289.024 154.648H262.104C261.892 154.648 261.689 154.564 261.539 154.414C261.389 154.264 261.304 154.06 261.304 153.848C261.304 153.636 261.389 153.432 261.539 153.282C261.689 153.132 261.892 153.048 262.104 153.048H289.024C289.236 153.048 289.44 153.132 289.59 153.282C289.74 153.432 289.824 153.636 289.824 153.848C289.824 154.06 289.74 154.264 289.59 154.414C289.44 154.564 289.236 154.648 289.024 154.648Z" fill="#263238"/>
<path d="M234.824 159.872H217.88C217.668 159.872 217.465 159.788 217.315 159.638C217.165 159.488 217.08 159.284 217.08 159.072C217.08 158.86 217.165 158.656 217.315 158.506C217.465 158.356 217.668 158.272 217.88 158.272H234.824C235.036 158.272 235.24 158.356 235.39 158.506C235.54 158.656 235.624 158.86 235.624 159.072C235.624 159.284 235.54 159.488 235.39 159.638C235.24 159.788 235.036 159.872 234.824 159.872Z" fill="#263238"/>
<g opacity="0.2">
<path d="M254.44 159.872H238.304C238.092 159.872 237.889 159.788 237.739 159.638C237.589 159.488 237.504 159.284 237.504 159.072C237.504 158.86 237.589 158.656 237.739 158.506C237.889 158.356 238.092 158.272 238.304 158.272H254.44C254.652 158.272 254.856 158.356 255.006 158.506C255.156 158.656 255.24 158.86 255.24 159.072C255.24 159.284 255.156 159.488 255.006 159.638C254.856 159.788 254.652 159.872 254.44 159.872Z" fill="#263238"/>
</g>
<path d="M289.024 159.872H259.504C259.292 159.872 259.089 159.788 258.939 159.638C258.788 159.488 258.704 159.284 258.704 159.072C258.704 158.86 258.788 158.656 258.939 158.506C259.089 158.356 259.292 158.272 259.504 158.272H289.024C289.236 158.272 289.44 158.356 289.59 158.506C289.74 158.656 289.824 158.86 289.824 159.072C289.824 159.284 289.74 159.488 289.59 159.638C289.44 159.788 289.236 159.872 289.024 159.872Z" fill="#407BFF"/>
<g opacity="0.2">
<path d="M238.592 165.096H217.88C217.668 165.096 217.465 165.012 217.315 164.862C217.165 164.712 217.08 164.508 217.08 164.296C217.08 164.084 217.165 163.88 217.315 163.73C217.465 163.58 217.668 163.496 217.88 163.496H238.592C238.804 163.496 239.008 163.58 239.158 163.73C239.308 163.88 239.392 164.084 239.392 164.296C239.392 164.508 239.308 164.712 239.158 164.862C239.008 165.012 238.804 165.096 238.592 165.096Z" fill="#263238"/>
</g>
<path opacity="0.4" d="M300 103.64C300 103.913 300.081 104.179 300.233 104.405C300.384 104.632 300.6 104.808 300.852 104.912C301.103 105.016 301.381 105.043 301.648 104.989C301.915 104.935 302.16 104.803 302.352 104.61C302.544 104.417 302.675 104.171 302.727 103.904C302.779 103.636 302.751 103.359 302.645 103.108C302.54 102.857 302.362 102.642 302.135 102.492C301.908 102.342 301.641 102.262 301.368 102.264C301.188 102.264 301.009 102.3 300.843 102.369C300.676 102.438 300.525 102.54 300.398 102.668C300.271 102.795 300.17 102.947 300.102 103.114C300.034 103.281 299.999 103.46 300 103.64Z" fill="white"/>
<path opacity="0.4" d="M296.6 105.008C297.356 105.008 297.968 104.396 297.968 103.64C297.968 102.884 297.356 102.272 296.6 102.272C295.845 102.272 295.232 102.884 295.232 103.64C295.232 104.396 295.845 105.008 296.6 105.008Z" fill="white"/>
<path opacity="0.4" d="M291.792 105.008C292.548 105.008 293.16 104.396 293.16 103.64C293.16 102.884 292.548 102.272 291.792 102.272C291.037 102.272 290.424 102.884 290.424 103.64C290.424 104.396 291.037 105.008 291.792 105.008Z" fill="white"/>
<path d="M90.608 105.136H67.632C66.7026 105.135 65.7821 105.317 64.9232 105.672C64.0643 106.027 63.2837 106.548 62.6262 107.204C61.9686 107.861 61.447 108.641 61.0911 109.5C60.7352 110.358 60.552 111.279 60.552 112.208V132.208C60.551 133.137 60.7331 134.058 61.088 134.917C61.443 135.776 61.9637 136.556 62.6205 137.214C63.2773 137.871 64.0573 138.393 64.9158 138.749C65.7744 139.105 66.6946 139.288 67.624 139.288H83.92L88.72 145.6V139.288H90.6C92.4777 139.288 94.2786 138.542 95.6063 137.214C96.9341 135.887 97.68 134.086 97.68 132.208V112.208C97.68 110.332 96.9349 108.534 95.6087 107.207C94.2824 105.881 92.4836 105.136 90.608 105.136Z" fill="#407BFF"/>
<path opacity="0.7" d="M90.608 105.136H67.632C66.7026 105.135 65.7821 105.317 64.9232 105.672C64.0643 106.027 63.2837 106.548 62.6262 107.204C61.9686 107.861 61.447 108.641 61.0911 109.5C60.7352 110.358 60.552 111.279 60.552 112.208V132.208C60.551 133.137 60.7331 134.058 61.088 134.917C61.443 135.776 61.9637 136.556 62.6205 137.214C63.2773 137.871 64.0573 138.393 64.9158 138.749C65.7744 139.105 66.6946 139.288 67.624 139.288H83.92L88.72 145.6V139.288H90.6C92.4777 139.288 94.2786 138.542 95.6063 137.214C96.9341 135.887 97.68 134.086 97.68 132.208V112.208C97.68 110.332 96.9349 108.534 95.6087 107.207C94.2824 105.881 92.4836 105.136 90.608 105.136Z" fill="white"/>
<path d="M77.9199 127.2C77.768 127.199 77.618 127.166 77.48 127.103C77.3421 127.039 77.2193 126.947 77.1199 126.832L72.6479 121.6C72.5586 121.495 72.4909 121.373 72.4486 121.242C72.4063 121.111 72.3902 120.973 72.4014 120.835C72.4125 120.698 72.4506 120.564 72.5135 120.441C72.5764 120.318 72.6628 120.209 72.7679 120.12C72.873 120.031 72.9946 119.963 73.1258 119.921C73.257 119.878 73.3953 119.862 73.5328 119.873C73.6702 119.885 73.8041 119.923 73.9268 119.986C74.0495 120.049 74.1586 120.135 74.2479 120.24L77.9199 124.576L83.9919 117.424C84.1743 117.223 84.4278 117.1 84.6988 117.082C84.9699 117.064 85.2373 117.152 85.4448 117.327C85.6523 117.503 85.7836 117.752 85.811 118.022C85.8385 118.292 85.7599 118.563 85.5919 118.776L78.7199 126.848C78.6197 126.961 78.4964 127.051 78.3583 127.111C78.2203 127.172 78.0707 127.202 77.9199 127.2Z" fill="white"/>
<path d="M87.1816 130.185C91.6367 125.73 91.6367 118.507 87.1816 114.052C82.7265 109.597 75.5033 109.597 71.0482 114.052C66.5931 118.507 66.5931 125.73 71.0482 130.185C75.5033 134.64 82.7265 134.64 87.1816 130.185Z" fill="#407BFF"/>
<path d="M163.776 246.784L180.952 245.944L179.28 260.88C179.28 260.88 167.36 263.152 162.04 254.672L163.776 246.784Z" fill="#987753"/>
<path d="M192.024 251.152L188.112 261.984L179.28 260.88L180.952 245.944L192.024 251.152Z" fill="#987753"/>
<path d="M147.288 271.024C153.828 267.609 159.789 263.184 164.952 257.912L163.776 246.784C147.544 249.184 138.176 252.616 138.176 252.616C138.176 252.616 144.192 231.056 138.688 223.2L123.576 225.936C123.576 225.936 107.52 259.312 118.32 271.024H147.288Z" fill="#407BFF"/>
<path opacity="0.7" d="M147.264 271.024C153.808 267.61 159.774 263.188 164.944 257.92L163.776 246.776C148.064 249.08 138.776 252.376 138.176 252.592C138.376 251.792 144.064 230.904 138.672 223.192L123.56 225.928C120.453 232.63 117.986 239.61 116.192 246.776C114.032 255.888 113.4 265.704 118.312 271.024H147.264Z" fill="white"/>
<path opacity="0.2" d="M134.84 271.024C140.176 237.216 135.448 228.624 135.448 228.624L116.248 246.76C114.088 255.872 113.456 265.688 118.368 271.008L134.84 271.024Z" fill="black"/>
<path d="M131.504 271.024C135.104 253.936 139.144 227.184 138.704 223.2C138.064 217.408 106.56 192.592 79.2159 210.656C73.6159 214.344 70.7599 254.128 69.7839 271.024H131.504Z" fill="#407BFF"/>
<path opacity="0.7" d="M131.504 271.024C135.104 253.936 139.144 227.176 138.704 223.192C138.064 217.408 106.552 192.592 79.2079 210.664C77.1839 212.016 75.5199 218.12 74.1439 226.184C72.3199 237.16 71.0559 251.736 70.3039 262.728C70.0959 265.84 69.9199 268.656 69.7839 271.024H131.504Z" fill="white"/>
<path d="M118.008 137.24C108.528 133.408 86.1759 147.16 84.2159 171.68C82.2559 196.2 94.6879 189.408 94.6879 189.408C94.6879 189.408 96.9039 198.76 105.96 195.872C105.96 195.872 113.44 204.344 120.4 200.896C120.4 200.896 129.064 209.92 133.712 205.16C133.712 205.16 138.768 210.928 143.384 206.56C148 202.192 161.192 157.6 140.496 147.288C119.8 136.976 118.008 137.24 118.008 137.24Z" fill="#263238"/>
<path d="M118.024 237.6L117.112 237.52C118.168 225.712 115.568 220.488 115.512 220.44L116.312 220.016C116.464 220.2 119.104 225.456 118.024 237.6Z" fill="#263238"/>
<path d="M122.312 237.704C116.032 222.912 123.112 219.464 123.4 219.304L123.776 220.104C123.712 220.104 117.248 223.376 123.152 237.296L122.312 237.704Z" fill="#263238"/>
<path d="M116.176 222.832C116.176 222.832 104.056 213.232 85.24 207.824L79.2 210.656C79.2 210.656 69.072 198.12 85.952 194.016C102.832 189.912 125.792 201.216 131.552 210.896C137.312 220.576 121.536 223.696 121.536 223.696C121.536 223.696 120.088 221.728 116.176 222.832Z" fill="#407BFF"/>
<path opacity="0.6" d="M116.176 222.832C116.176 222.832 104.056 213.232 85.24 207.824L79.2 210.656C79.2 210.656 69.072 198.12 85.952 194.016C102.832 189.912 125.792 201.216 131.552 210.896C137.312 220.576 121.536 223.696 121.536 223.696C121.536 223.696 120.088 221.728 116.176 222.832Z" fill="white"/>
<path d="M123.488 237.528C123.488 237.686 123.441 237.841 123.353 237.972C123.265 238.104 123.14 238.207 122.994 238.267C122.848 238.328 122.687 238.344 122.532 238.313C122.377 238.282 122.234 238.206 122.122 238.094C122.01 237.982 121.934 237.839 121.903 237.684C121.872 237.529 121.888 237.368 121.949 237.222C122.009 237.076 122.112 236.951 122.243 236.863C122.375 236.775 122.53 236.728 122.688 236.728C122.9 236.728 123.104 236.812 123.254 236.962C123.404 237.112 123.488 237.316 123.488 237.528Z" fill="white"/>
<path d="M118.296 237.528C118.296 237.686 118.249 237.841 118.161 237.972C118.073 238.104 117.948 238.207 117.802 238.267C117.656 238.328 117.495 238.344 117.34 238.313C117.185 238.282 117.042 238.206 116.93 238.094C116.818 237.982 116.742 237.839 116.711 237.684C116.68 237.529 116.696 237.368 116.757 237.222C116.817 237.076 116.92 236.951 117.052 236.863C117.183 236.775 117.338 236.728 117.496 236.728C117.708 236.728 117.912 236.812 118.062 236.962C118.212 237.112 118.296 237.316 118.296 237.528Z" fill="white"/>
<path d="M109.736 177.6C109 186.184 106.368 201.464 99.3839 204.8C99.3839 204.8 107.192 206.4 119.384 221.848C126.32 216.984 123.696 213.664 123.696 213.664C115.584 208.344 117.688 201.784 120.968 196.064L109.736 177.6Z" fill="#987753"/>
<path opacity="0.2" d="M114.304 185.128L120.952 196.088C120.158 197.411 119.486 198.803 118.944 200.248C115.744 198.536 112.24 193.112 112.904 189.4C113.111 187.904 113.585 186.457 114.304 185.128Z" fill="black"/>
<path d="M108.8 159.448C106.568 172.936 105.336 178.584 110.336 187.264C117.848 200.328 134.496 200.944 140.616 188.592C146.12 177.472 148.848 157.28 137.36 148.368C126.024 139.584 111.016 145.952 108.8 159.448Z" fill="#987753"/>
<path d="M136.424 140.856C145.168 145.704 153.496 160.856 141.056 157.072C139.176 160.712 132.48 157.376 128.584 153.008C127.928 156.04 120.76 159.08 115.48 154.384C118.032 158.064 113.688 167.352 109.168 165.752C104.648 164.152 94.5039 162.048 103.488 147.728C112.472 133.408 127.088 135.664 136.424 140.856Z" fill="#263238"/>
<path d="M133.24 172.176C133.24 172.176 134.04 177.528 135.56 180.432C133.856 181.416 131.56 180.104 131.56 180.104L133.24 172.176Z" fill="#D58745"/>
<path d="M124.52 182.504C125.088 182.781 125.679 183.006 126.288 183.176C126.329 183.188 126.372 183.191 126.414 183.185C126.457 183.179 126.497 183.164 126.533 183.142C126.57 183.119 126.601 183.089 126.625 183.054C126.648 183.018 126.665 182.978 126.672 182.936C126.694 182.848 126.68 182.755 126.633 182.677C126.587 182.599 126.512 182.543 126.424 182.52C125.047 182.134 123.775 181.445 122.701 180.502C121.626 179.559 120.777 178.387 120.216 177.072C120.204 177.03 120.184 176.99 120.156 176.955C120.129 176.921 120.094 176.893 120.055 176.872C120.017 176.851 119.974 176.838 119.93 176.834C119.886 176.83 119.842 176.835 119.8 176.848C119.719 176.882 119.654 176.946 119.62 177.027C119.586 177.107 119.584 177.198 119.616 177.28C120.552 179.565 122.298 181.425 124.52 182.504Z" fill="#263238"/>
<path d="M101.992 169.144C102.746 171.948 104.582 174.339 107.096 175.792C110.352 177.576 112.696 174.52 112.456 170.72C112.208 167.288 110.208 162.232 106.64 162.032C103.072 161.832 101.024 165.6 101.992 169.144Z" fill="#987753"/>
<path d="M123.6 159.816C123.68 159.853 123.767 159.873 123.856 159.873C123.944 159.873 124.032 159.853 124.112 159.816C124.822 159.422 125.618 159.209 126.43 159.195C127.242 159.181 128.045 159.367 128.768 159.736C128.84 159.782 128.92 159.812 129.005 159.825C129.089 159.838 129.175 159.833 129.257 159.81C129.34 159.788 129.416 159.748 129.482 159.694C129.548 159.64 129.602 159.572 129.64 159.496C129.719 159.335 129.736 159.15 129.687 158.977C129.638 158.805 129.528 158.656 129.376 158.56C128.473 158.066 127.461 157.807 126.432 157.807C125.403 157.807 124.39 158.066 123.488 158.56C123.337 158.65 123.226 158.795 123.178 158.965C123.13 159.135 123.15 159.316 123.232 159.472C123.31 159.627 123.44 159.749 123.6 159.816Z" fill="#263238"/>
<path d="M145.096 165.08C145.168 165.121 145.248 165.147 145.331 165.155C145.414 165.163 145.497 165.154 145.576 165.128C145.659 165.1 145.736 165.056 145.802 164.998C145.868 164.94 145.921 164.869 145.959 164.79C145.997 164.711 146.019 164.625 146.023 164.538C146.027 164.45 146.014 164.362 145.984 164.28C145.692 163.24 145.164 162.282 144.441 161.48C143.718 160.678 142.82 160.054 141.816 159.656C141.734 159.627 141.646 159.616 141.559 159.623C141.472 159.631 141.387 159.657 141.311 159.701C141.236 159.744 141.17 159.803 141.119 159.874C141.068 159.945 141.033 160.026 141.016 160.112C140.974 160.286 140.999 160.469 141.084 160.625C141.17 160.782 141.311 160.901 141.48 160.96C142.271 161.287 142.976 161.791 143.542 162.433C144.108 163.075 144.519 163.838 144.744 164.664C144.772 164.753 144.818 164.836 144.878 164.907C144.938 164.979 145.013 165.038 145.096 165.08Z" fill="#263238"/>
<path d="M127.904 168.64C127.512 169.712 126.616 170.36 125.904 170.096C125.192 169.832 124.936 168.76 125.328 167.696C125.72 166.632 126.616 165.976 127.32 166.24C128.024 166.504 128.288 167.576 127.904 168.64Z" fill="#263238"/>
<path d="M127.008 166.184L129.664 166.128C129.664 166.128 127.792 167.648 127.008 166.184Z" fill="#263238"/>
<path d="M141.336 172.904C140.944 173.968 140.048 174.616 139.344 174.36C138.64 174.104 138.368 173.016 138.76 171.96C139.152 170.904 140.048 170.248 140.76 170.504C141.472 170.76 141.728 171.832 141.336 172.904Z" fill="#263238"/>
<path d="M140.448 170.44L143.096 170.384C143.096 170.384 141.224 171.912 140.448 170.44Z" fill="#263238"/>
<path d="M126.64 176.2C125.813 176.203 124.996 176.031 124.24 175.696C123.44 175.329 122.73 174.793 122.158 174.124C121.586 173.456 121.167 172.671 120.928 171.824C120.412 169.998 120.553 168.05 121.327 166.317C122.1 164.585 123.457 163.179 125.16 162.344C125.949 161.95 126.816 161.735 127.698 161.716C128.58 161.696 129.455 161.873 130.261 162.232C131.067 162.592 131.782 163.126 132.357 163.795C132.932 164.465 133.351 165.253 133.584 166.104C134.116 167.928 133.971 169.883 133.176 171.608C132.425 173.362 131.064 174.783 129.344 175.608C128.497 176 127.574 176.202 126.64 176.2ZM127.896 162.64C127.099 162.661 126.317 162.852 125.6 163.2C124.098 163.943 122.902 165.187 122.218 166.718C121.535 168.248 121.407 169.969 121.856 171.584C122.049 172.311 122.401 172.986 122.889 173.558C123.376 174.131 123.985 174.588 124.671 174.895C125.358 175.202 126.104 175.351 126.856 175.332C127.608 175.313 128.346 175.125 129.016 174.784C130.53 174.059 131.732 172.812 132.4 171.272C133.103 169.745 133.231 168.014 132.76 166.4C132.559 165.678 132.203 165.008 131.717 164.437C131.231 163.866 130.625 163.409 129.944 163.096C129.303 162.795 128.604 162.639 127.896 162.64Z" fill="#263238"/>
<path d="M139.952 180.28C139.125 180.287 138.306 180.115 137.552 179.776C136.752 179.408 136.041 178.872 135.468 178.203C134.895 177.535 134.473 176.751 134.232 175.904C133.72 174.077 133.864 172.129 134.638 170.398C135.413 168.666 136.769 167.26 138.472 166.424C139.26 166.028 140.127 165.812 141.009 165.792C141.891 165.772 142.766 165.948 143.572 166.308C144.377 166.668 145.092 167.203 145.666 167.873C146.24 168.543 146.657 169.333 146.888 170.184C147.427 172.006 147.285 173.963 146.488 175.688C145.948 176.996 145.046 178.122 143.888 178.935C142.731 179.749 141.365 180.215 139.952 180.28ZM141.224 166.68C140.416 166.685 139.619 166.866 138.888 167.208C137.375 167.938 136.174 169.187 135.504 170.728C134.796 172.252 134.668 173.981 135.144 175.592C135.345 176.315 135.7 176.986 136.187 177.558C136.673 178.13 137.278 178.59 137.96 178.904C140.76 180.16 144.232 178.528 145.688 175.28C146.388 173.752 146.515 172.023 146.048 170.408C145.846 169.686 145.489 169.017 145.003 168.446C144.517 167.876 143.913 167.418 143.232 167.104C142.596 166.839 141.913 166.708 141.224 166.72V166.68Z" fill="#263238"/>
<path d="M134.24 171.936C134.222 171.879 134.193 171.826 134.152 171.782C134.112 171.738 134.063 171.703 134.008 171.68C133.657 171.619 133.295 171.672 132.976 171.832L132.576 171.032C133.119 170.754 133.747 170.689 134.336 170.848C134.521 170.913 134.688 171.019 134.827 171.157C134.965 171.296 135.071 171.463 135.136 171.648L134.24 171.936Z" fill="#263238"/>
<path d="M112.361 163.375L112.088 164.251L122.916 167.635L123.19 166.759L112.361 163.375Z" fill="#263238"/>
<path opacity="0.2" d="M109.824 247.568C109.824 247.568 88.7758 263.696 70.3038 262.768C71.0558 251.776 72.3198 237.168 74.1438 226.224C76.0318 224.144 77.2718 222.88 77.2718 222.88L88.4718 231.256L85.7438 234.68C85.7438 234.68 102.696 233.816 108.6 234.68L109.824 247.568Z" fill="black"/>
<path d="M112 234.64L128.848 231.2L129.448 246.224C129.448 246.224 118.016 250.272 111.472 242.696L112 234.64Z" fill="#987753"/>
<path d="M140.576 234.688L138.352 245.984L129.448 246.232L128.848 231.208L140.576 234.688Z" fill="#987753"/>
<path d="M112 234.64L112.824 246.232L108.632 248.112L106.84 234.64H112Z" fill="#407BFF"/>
<path opacity="0.6" d="M112 234.64L112.824 246.232L108.632 248.112L106.84 234.64H112Z" fill="white"/>
<path d="M85.2399 207.824C80.7191 208.622 76.6252 210.991 73.6799 214.512C68.5999 220.48 50.6959 238.208 54.6719 252.68C58.6479 267.152 96.9359 256.384 108.632 248.112L106.84 234.64L80.3199 236.584L88.4959 231.2C94.1039 215.6 85.2399 207.824 85.2399 207.824Z" fill="#407BFF"/>
<path opacity="0.7" d="M85.2399 207.824C80.7191 208.622 76.6252 210.991 73.6799 214.512C68.5999 220.48 50.6959 238.208 54.6719 252.68C58.6479 267.152 96.9359 256.384 108.632 248.112L106.84 234.64L80.3199 236.584L88.4959 231.2C94.1039 215.6 85.2399 207.824 85.2399 207.824Z" fill="white"/>
<path d="M162.048 247.04L166.872 246.232V259.16L163.048 259.784L162.048 247.04Z" fill="#407BFF"/>
<path opacity="0.6" d="M162.048 247.04L166.872 246.232V259.16L163.048 259.784L162.048 247.04Z" fill="white"/>
<path d="M152.296 259.032C152.282 258.324 152.317 257.616 152.4 256.912L152.544 255.848L151.512 256.456L150.896 256.824C150.693 256.915 150.485 256.993 150.272 257.056C149.907 257.171 149.516 257.171 149.152 257.056C148.8 256.926 148.49 256.702 148.256 256.408C147.986 256.084 147.772 255.716 147.624 255.32L146.72 252.8L146.08 255.472C146.016 255.736 145.976 256.008 145.928 256.272C145.88 256.536 145.768 256.768 145.696 257.016C145.543 257.415 145.286 257.766 144.952 258.032C144.578 258.224 144.145 258.261 143.744 258.136C143.24 258.004 142.759 257.793 142.32 257.512L140.928 256.64L141.488 258.056C141.73 258.658 141.923 259.279 142.064 259.912C142.134 260.228 142.177 260.549 142.192 260.872C142.227 261.201 142.154 261.532 141.984 261.816C142.265 261.59 142.457 261.273 142.528 260.92C142.619 260.575 142.668 260.221 142.672 259.864C142.688 259.584 142.688 259.304 142.672 259.024C142.905 259.156 143.145 259.273 143.392 259.376C143.755 259.525 144.145 259.597 144.538 259.587C144.93 259.577 145.316 259.486 145.672 259.32C146.348 258.94 146.876 258.342 147.168 257.624V257.52C147.601 258.013 148.181 258.353 148.822 258.49C149.463 258.627 150.132 258.553 150.728 258.28C150.963 258.174 151.19 258.051 151.408 257.912C151.408 257.912 151.408 257.968 151.408 258C151.465 258.377 151.543 258.751 151.64 259.12C151.737 259.492 151.871 259.854 152.04 260.2C152.2 260.548 152.438 260.855 152.736 261.096C152.556 260.783 152.44 260.438 152.392 260.08C152.337 259.733 152.304 259.383 152.296 259.032Z" fill="#407BFF"/>
<path d="M180.912 240.984C180.289 241.044 179.66 240.976 179.064 240.784C178.45 240.602 177.865 240.332 177.328 239.984C176.818 239.605 176.381 239.136 176.04 238.6C175.679 238.068 175.391 237.489 175.184 236.88L174.656 235.28L173.76 236.696C173.377 237.29 172.914 237.828 172.384 238.296C171.954 238.722 171.387 238.982 170.784 239.032H170.592L170.352 238.984C170.184 238.984 170.024 238.904 169.856 238.864C169.522 238.754 169.198 238.615 168.888 238.448C168.262 238.098 167.684 237.667 167.168 237.168L165.776 235.832L166.064 237.664C166.225 238.642 166.287 239.634 166.248 240.624C166.232 241.09 166.138 241.55 165.968 241.984C165.893 242.174 165.755 242.333 165.578 242.434C165.4 242.536 165.194 242.575 164.992 242.544H164.632L164.744 242.84C164.979 243.443 165.219 244.043 165.464 244.64C165.392 244.104 165.304 243.568 165.208 243.04H165.36C165.519 243.028 165.677 243.002 165.832 242.96C165.979 242.884 166.12 242.799 166.256 242.704C166.36 242.592 166.472 242.472 166.568 242.352C166.875 241.865 167.079 241.321 167.168 240.752C167.269 240.224 167.328 239.689 167.344 239.152C167.6 239.364 167.867 239.561 168.144 239.744C168.52 239.975 168.916 240.171 169.328 240.328C169.768 240.511 170.236 240.616 170.712 240.64C171.702 240.626 172.652 240.25 173.384 239.584C173.698 239.321 173.99 239.032 174.256 238.72C174.413 238.995 174.584 239.262 174.768 239.52C175.247 240.181 175.843 240.748 176.528 241.192C177.211 241.607 177.961 241.899 178.744 242.056C179.247 242.154 179.76 242.191 180.272 242.168C180.208 242.328 180.136 242.488 180.08 242.656C179.94 243.118 179.83 243.588 179.752 244.064C179.667 244.542 179.645 245.029 179.688 245.512C179.712 245.994 179.858 246.462 180.112 246.872C179.974 246.435 179.939 245.973 180.008 245.52C180.068 245.071 180.173 244.629 180.32 244.2C180.627 243.364 181.016 242.56 181.48 241.8L181.984 240.944L180.912 240.984Z" fill="#407BFF"/>
<path d="M340.96 288.264L60.4002 288.264C59.4581 288.264 58.5546 287.89 57.8885 287.224C57.2224 286.557 56.8481 285.654 56.8481 284.712V276.072L344.512 276.072V284.712C344.512 285.654 344.138 286.557 343.472 287.224C342.806 287.89 341.902 288.264 340.96 288.264Z" fill="#407BFF"/>
<path opacity="0.2" d="M56.8401 282.16L344.512 282.16V276.064L56.8401 276.064V282.16Z" fill="black"/>
<path d="M50.816 277.656H350.544C351.455 277.656 352.329 277.295 352.974 276.651C353.619 276.008 353.982 275.135 353.984 274.224C353.984 273.312 353.622 272.437 352.977 271.791C352.331 271.146 351.456 270.784 350.544 270.784H50.816C49.9037 270.784 49.0287 271.146 48.3836 271.791C47.7385 272.437 47.376 273.312 47.376 274.224C47.3782 275.135 47.7415 276.008 48.3864 276.651C49.0313 277.295 49.9051 277.656 50.816 277.656Z" fill="#407BFF"/>
<path d="M330.232 228.8L321.48 268.496C321.32 269.132 320.955 269.697 320.442 270.105C319.929 270.513 319.295 270.74 318.64 270.752H270.832C270.534 270.744 270.243 270.668 269.98 270.528C269.717 270.389 269.49 270.191 269.316 269.949C269.142 269.707 269.027 269.429 268.979 269.135C268.931 268.841 268.952 268.54 269.04 268.256L277.776 228.864C277.955 228.264 278.335 227.743 278.852 227.39C279.369 227.036 279.992 226.87 280.616 226.92H328.424C329.704 226.952 330.512 227.536 330.232 228.8Z" fill="#263238"/>
<path opacity="0.4" d="M330.232 228.8L321.48 268.496C321.32 269.132 320.955 269.697 320.442 270.105C319.929 270.513 319.296 270.74 318.64 270.752H272.456C272.158 270.745 271.865 270.67 271.601 270.531C271.337 270.392 271.109 270.194 270.935 269.952C270.76 269.71 270.644 269.431 270.596 269.137C270.548 268.842 270.568 268.541 270.656 268.256L279.408 228.864C279.583 228.261 279.962 227.738 280.48 227.384C280.998 227.029 281.623 226.865 282.248 226.92H328.424C329.704 226.952 330.512 227.536 330.232 228.8Z" fill="white"/>
<path d="M322.608 269.528L331.312 230.04C331.6 228.744 330.792 228.16 329.504 228.16H283.328C282.703 228.108 282.08 228.274 281.563 228.628C281.046 228.982 280.666 229.503 280.488 230.104L271.648 270.048L322.608 269.528Z" fill="#407BFF"/>
<path opacity="0.4" d="M331.312 230.032L326.72 250.896L322.6 269.528L295.32 269.808L271.656 270.04L280.456 230.104C280.631 229.503 281.009 228.981 281.525 228.626C282.041 228.272 282.664 228.107 283.288 228.16H329.52C330.8 228.16 331.6 228.752 331.312 230.032Z" fill="white"/>
<path opacity="0.2" d="M326.72 250.896L322.6 269.528L295.32 269.808H272.664L276.368 252.768C276.487 252.24 276.781 251.768 277.202 251.428C277.623 251.088 278.147 250.901 278.688 250.896H326.72Z" fill="black"/>
<path d="M327.504 253.488C327.327 252.887 326.948 252.366 326.43 252.013C325.912 251.66 325.288 251.497 324.664 251.552H278.488C277.208 251.552 276.4 252.128 276.68 253.424L280.184 269.312H272.384C272.189 269.312 272.002 269.39 271.864 269.528C271.726 269.666 271.648 269.853 271.648 270.048C271.648 270.243 271.726 270.43 271.864 270.568C272.002 270.706 272.189 270.784 272.384 270.784H329.264C329.512 270.779 329.756 270.72 329.979 270.609C330.201 270.498 330.396 270.339 330.549 270.144C330.702 269.949 330.81 269.722 330.864 269.48C330.919 269.237 330.919 268.986 330.864 268.744L327.504 253.488Z" fill="#407BFF"/>
<path opacity="0.4" d="M327.504 253.488C327.327 252.887 326.948 252.366 326.43 252.013C325.912 251.66 325.288 251.497 324.664 251.552H278.488C277.208 251.552 276.4 252.128 276.68 253.424L280.184 269.312H272.384C272.189 269.312 272.002 269.39 271.864 269.528C271.726 269.666 271.648 269.853 271.648 270.048C271.648 270.243 271.726 270.43 271.864 270.568C272.002 270.706 272.189 270.784 272.384 270.784H329.264C329.512 270.779 329.756 270.72 329.979 270.609C330.201 270.498 330.396 270.339 330.549 270.144C330.702 269.949 330.81 269.722 330.864 269.48C330.919 269.237 330.919 268.986 330.864 268.744L327.504 253.488Z" fill="white"/>
<path d="M271 263.128H268.32L267.984 264.576H270.592L271 263.128Z" fill="black"/>
<path d="M254.064 270.968H246.344C246.284 270.969 246.224 270.958 246.168 270.936C246.112 270.913 246.062 270.879 246.019 270.837C245.977 270.794 245.943 270.744 245.92 270.688C245.898 270.632 245.887 270.572 245.888 270.512C245.888 270.391 245.936 270.275 246.022 270.19C246.107 270.104 246.223 270.056 246.344 270.056H254.064C255.331 270.058 256.582 269.776 257.724 269.228C258.867 268.681 259.871 267.884 260.664 266.896C261.542 265.799 262.656 264.915 263.924 264.308C265.191 263.701 266.579 263.388 267.984 263.392H269.344C269.464 263.394 269.579 263.443 269.664 263.528C269.749 263.613 269.798 263.728 269.8 263.848C269.8 263.969 269.752 264.085 269.666 264.17C269.581 264.256 269.465 264.304 269.344 264.304H268C266.733 264.302 265.482 264.585 264.34 265.132C263.197 265.679 262.192 266.476 261.4 267.464C260.52 268.563 259.403 269.448 258.133 270.055C256.862 270.662 255.472 270.974 254.064 270.968Z" fill="black"/>
<path d="M125.424 265.32V268.656C125.424 270.16 127.24 270.784 128.744 270.784H246.008C247.496 270.784 249.264 270.16 249.264 268.656V265.32H125.424Z" fill="#263238"/>
<path opacity="0.4" d="M125.424 265.32V268.656C125.424 270.16 127.24 270.784 128.744 270.784H246.008C247.496 270.784 249.264 270.16 249.264 268.656V265.32H125.424Z" fill="white"/>
<path opacity="0.2" d="M165.376 265.32V268.656C165.376 270.16 167.16 270.784 168.664 270.784H246.008C247.496 270.784 249.264 270.16 249.264 268.656V265.32H165.376Z" fill="black"/>
<path d="M268.888 201.864L254.928 265.184C254.677 266.202 254.098 267.108 253.279 267.762C252.46 268.416 251.448 268.781 250.4 268.8H174.136C172.112 268.8 170.8 266.904 171.272 264.8L185.216 201.96C185.688 199.896 187.704 198.864 189.752 198.864H266.008C268.056 198.872 269.344 199.8 268.888 201.864Z" fill="#263238"/>
<path opacity="0.4" d="M268.888 201.864L254.928 265.184C254.677 266.202 254.098 267.108 253.279 267.762C252.46 268.416 251.448 268.781 250.4 268.8H176.728C174.68 268.8 173.392 266.904 173.848 264.8L187.808 201.96C188.264 199.896 190.296 198.864 192.344 198.864H266.008C268.056 198.872 269.344 199.8 268.888 201.864Z" fill="white"/>
<path opacity="0.2" d="M231.288 234.048C231.288 239.472 225.48 243.88 221.216 243.88C216.952 243.88 214.432 239.472 215.616 234.048C216.8 228.624 221.064 224.408 225.216 224.24C224 229.664 226.6 234.048 230.816 234.048C230.973 234.063 231.131 234.063 231.288 234.048Z" fill="black"/>
</svg>
