<svg width="400" height="299" viewBox="0 0 400 299" fill="none" xmlns="http://www.w3.org/2000/svg">
<path d="M198.672 78.84C171.944 62.672 151.296 38.8 116.272 45.992C88.632 51.664 69.664 77.192 69.768 105.192C69.904 137.792 95.512 156.088 111.656 181.056C126.056 203.296 141.016 236.68 173.256 233.336C200.68 230.496 211.976 196.056 242.56 193.96C274.176 191.784 294.872 202.112 314.44 166.24C329 139.576 325.32 105 294.36 92.48C263.64 80 229.464 97.464 198.672 78.84Z" fill="#407BFF"/>
<path opacity="0.9" d="M198.672 78.84C171.944 62.672 151.296 38.8 116.272 45.992C88.632 51.664 69.664 77.192 69.768 105.192C69.904 137.792 95.512 156.088 111.656 181.056C126.056 203.296 141.016 236.68 173.256 233.336C200.68 230.496 211.976 196.056 242.56 193.96C274.176 191.784 294.872 202.112 314.44 166.24C329 139.576 325.32 105 294.36 92.48C263.64 80 229.464 97.464 198.672 78.84Z" fill="white"/>
<path d="M200 298.048C114.334 298.048 44.888 293.994 44.888 288.992C44.888 283.991 114.334 279.936 200 279.936C285.666 279.936 355.112 283.991 355.112 288.992C355.112 293.994 285.666 298.048 200 298.048Z" fill="#F5F5F5"/>
<path d="M130.512 276.008L137.04 276.96L141.104 262.184L134.584 261.232L130.512 276.008Z" fill="#FFC3BD"/>
<path d="M103.536 282.272H110.12L111.984 267.032H105.4L103.536 282.272Z" fill="#FFC3BD"/>
<path d="M110.984 281.512H102.984C102.853 281.512 102.725 281.556 102.622 281.638C102.519 281.719 102.447 281.832 102.416 281.96L101.056 287.808C101.025 287.95 101.026 288.096 101.059 288.238C101.092 288.379 101.157 288.51 101.249 288.623C101.341 288.735 101.456 288.825 101.588 288.887C101.719 288.948 101.863 288.978 102.008 288.976C104.592 288.936 106.48 288.784 109.728 288.784C111.728 288.784 117.728 288.992 120.52 288.992C123.312 288.992 123.672 286.256 122.544 286.008C117.48 284.904 113.68 283.376 112.072 281.912C111.772 281.647 111.384 281.505 110.984 281.512Z" fill="#263238"/>
<path d="M137.536 275.152L131.016 272.08C130.897 272.026 130.763 272.013 130.635 272.044C130.508 272.074 130.394 272.146 130.312 272.248L126.6 276.952C126.509 277.065 126.445 277.197 126.413 277.338C126.382 277.479 126.383 277.626 126.417 277.767C126.451 277.908 126.517 278.039 126.61 278.15C126.702 278.261 126.82 278.349 126.952 278.408C129.352 279.472 132.784 280.936 135.752 282.328C138.272 283.568 140.872 284.638 143.536 285.528C146.08 286.456 147.736 284.152 146.736 283.536C142.272 280.728 141.584 280.672 138.736 276.336C138.454 275.837 138.039 275.427 137.536 275.152Z" fill="#263238"/>
<path opacity="0.2" d="M141.104 262.192L139.008 269.808L132.48 268.856L134.576 261.24L141.104 262.192Z" fill="black"/>
<path opacity="0.2" d="M105.4 267.032H111.984L111.016 274.888H104.44L105.4 267.032Z" fill="black"/>
<path d="M141.688 268.664L130.64 267.064C130.64 267.064 138.768 226.376 136.888 205.968C136.312 199.768 135.168 193.968 133.128 184.736C130.544 173.088 127.304 160.504 124.648 150.656C121.848 140.256 119.712 132.928 119.712 132.928L142.8 131.144C142.8 131.144 153.4 183.944 154 204.016C154.696 224.864 141.688 268.664 141.688 268.664Z" fill="#407BFF"/>
<path opacity="0.3" d="M141.688 268.664L130.64 267.064C130.64 267.064 138.768 226.376 136.888 205.968C136.312 199.768 135.168 193.968 133.128 184.736C130.544 173.088 127.304 160.504 124.648 150.656C121.848 140.256 119.712 132.928 119.712 132.928L142.8 131.144C142.8 131.144 153.4 183.944 154 204.016C154.696 224.864 141.688 268.664 141.688 268.664Z" fill="black"/>
<path opacity="0.2" d="M133.128 184.72C130.544 173.072 127.304 160.488 124.648 150.64L127.048 145.456C132.8 152.216 134.264 173.264 133.128 184.72Z" fill="black"/>
<path d="M130.344 132.088C130.344 132.088 127.728 188.448 124.904 207.552C121.816 228.472 114.08 273.368 114.08 273.368H102.024C102.024 273.368 106.704 217.608 107.76 206.664C110.016 183.28 107.68 133.864 107.68 133.864L130.344 132.088Z" fill="#407BFF"/>
<path opacity="0.3" d="M130.344 132.088C130.344 132.088 127.728 188.448 124.904 207.552C121.816 228.472 114.08 273.368 114.08 273.368H102.024C102.024 273.368 106.704 217.608 107.76 206.664C110.016 183.28 107.68 133.864 107.68 133.864L130.344 132.088Z" fill="black"/>
<path d="M115.52 273.632H101.32L101.368 269.392L117.232 269.112L115.52 273.632Z" fill="#263238"/>
<path d="M143.04 269.12L129.864 267.2L130.52 262.968L145.28 264.896L143.04 269.12Z" fill="#263238"/>
<path d="M113.144 282.656C113.594 282.693 114.043 282.574 114.416 282.32C114.532 282.224 114.623 282.1 114.68 281.961C114.737 281.821 114.759 281.67 114.744 281.52C114.746 281.43 114.723 281.342 114.678 281.264C114.633 281.186 114.567 281.123 114.488 281.08C113.76 280.704 111.624 282.016 111.384 282.16C111.358 282.177 111.337 282.201 111.324 282.229C111.311 282.258 111.307 282.289 111.312 282.32C111.316 282.35 111.328 282.378 111.348 282.401C111.368 282.424 111.395 282.44 111.424 282.448C111.988 282.582 112.565 282.652 113.144 282.656ZM114.136 281.296C114.205 281.294 114.273 281.308 114.336 281.336C114.384 281.336 114.432 281.4 114.432 281.52C114.446 281.625 114.433 281.732 114.396 281.831C114.358 281.93 114.296 282.019 114.216 282.088C113.856 282.384 112.992 282.424 111.88 282.2C112.567 281.757 113.333 281.45 114.136 281.296Z" fill="#407BFF"/>
<path d="M111.464 282.4C111.487 282.407 111.513 282.407 111.536 282.4C112.224 282.032 113.552 280.584 113.424 279.856C113.403 279.74 113.342 279.636 113.251 279.561C113.16 279.486 113.046 279.446 112.928 279.448C112.809 279.429 112.688 279.438 112.573 279.472C112.458 279.507 112.353 279.567 112.264 279.648C111.464 280.272 111.312 282.168 111.312 282.248C111.307 282.276 111.311 282.304 111.322 282.33C111.334 282.355 111.352 282.377 111.376 282.392C111.404 282.403 111.434 282.406 111.464 282.4ZM112.8 279.76H112.872C113.072 279.76 113.088 279.88 113.096 279.92C113.176 280.352 112.296 281.44 111.648 281.96C111.7 281.207 111.979 280.487 112.448 279.896C112.545 279.81 112.67 279.761 112.8 279.76Z" fill="#407BFF"/>
<path d="M137.728 276.24C138.6 276.888 140.2 277.92 141.128 277.656C141.265 277.617 141.39 277.546 141.493 277.449C141.596 277.351 141.674 277.23 141.72 277.096C141.753 277.018 141.765 276.933 141.756 276.849C141.746 276.765 141.714 276.684 141.664 276.616C141.136 275.864 138.152 275.952 137.816 275.96C137.784 275.964 137.754 275.976 137.728 275.996C137.703 276.016 137.683 276.042 137.672 276.072C137.663 276.102 137.663 276.135 137.673 276.165C137.683 276.195 137.702 276.221 137.728 276.24ZM141.384 276.768V276.808C141.402 276.837 141.411 276.87 141.411 276.904C141.411 276.938 141.402 276.971 141.384 277C141.353 277.09 141.302 277.17 141.234 277.236C141.165 277.301 141.083 277.349 140.992 277.376C140.472 277.52 139.464 277.12 138.248 276.28C139.472 276.28 141.008 276.4 141.384 276.8V276.768Z" fill="#407BFF"/>
<path d="M137.728 276.24C137.741 276.255 137.757 276.267 137.775 276.275C137.793 276.283 137.812 276.288 137.832 276.288C138.712 276.288 140.752 275.696 140.968 274.976C141.016 274.808 140.968 274.56 140.624 274.336C140.491 274.256 140.343 274.203 140.189 274.181C140.035 274.159 139.878 274.168 139.728 274.208C138.672 274.472 137.744 275.992 137.704 276.056C137.689 276.079 137.681 276.105 137.681 276.132C137.681 276.159 137.689 276.186 137.704 276.208C137.704 276.208 137.72 276.232 137.728 276.24ZM140.592 274.704C140.696 274.8 140.672 274.864 140.664 274.896C140.536 275.328 139.064 275.872 138.136 275.968C138.529 275.324 139.109 274.816 139.8 274.512C139.911 274.479 140.028 274.471 140.143 274.487C140.257 274.504 140.367 274.545 140.464 274.608C140.512 274.632 140.556 274.665 140.592 274.704Z" fill="#407BFF"/>
<path d="M133.92 83.848C135.52 87.1494 137.187 90.4374 138.92 93.712L144.056 103.472C144.856 105.072 145.768 106.672 146.552 108.272C147.152 109.482 147.923 110.6 148.84 111.592C149.969 112.804 151.395 113.7 152.976 114.192C153.782 114.427 154.616 114.55 155.456 114.56C156.208 114.548 156.956 114.454 157.688 114.28C158.935 113.96 160.121 113.439 161.2 112.736C162.143 112.134 163.02 111.434 163.816 110.648C164.208 110.272 164.568 109.848 164.912 109.48C165.256 109.112 165.56 108.68 165.944 108.184L162.416 104.72L161.384 105.28C161.024 105.472 160.656 105.656 160.296 105.824C159.618 106.148 158.914 106.416 158.192 106.624C157.634 106.803 157.049 106.879 156.464 106.848C156 106.848 155.776 106.688 155.704 106.544C155.632 106.4 155.536 106.296 155.368 105.968C155.144 105.513 154.947 105.046 154.776 104.568C154.048 102.776 153.32 101.056 152.552 99.336C151.032 95.9227 149.461 92.5467 147.84 89.208C147.04 87.536 146.24 85.864 145.36 84.216C144.48 82.568 143.68 80.904 142.792 79.264L133.92 83.848Z" fill="#FFC3BD"/>
<path d="M131.088 79.5361C129.272 85.5761 141.656 102 141.656 102L154.304 93.8561C151.969 88.6348 149.078 83.6807 145.68 79.0801C140.56 72.5201 133.08 72.9041 131.088 79.5361Z" fill="#263238"/>
<path opacity="0.2" d="M139.2 87.8C142.4 89.264 145.824 94.688 146.328 99L141.64 102.016C138.687 98.0374 136.034 93.8445 133.704 89.472C134.688 87.92 135.536 86.128 139.2 87.8Z" fill="black"/>
<path d="M101.768 76.9601C103.684 84.0467 105.067 91.2669 105.904 98.5601C106.512 103.656 106.88 108.52 107.096 112.96C107.624 123.304 107.376 131.192 107.68 133.856L142.8 131.144C147.664 93.6721 138.576 74.4561 138.576 74.4561C135.799 73.9594 132.993 73.6335 130.176 73.4801C129.584 73.4801 128.976 73.4321 128.36 73.4241C123.366 73.5201 118.382 73.9047 113.432 74.5761C112.488 74.6961 111.536 74.8401 110.616 75.0001C105.912 75.7841 101.768 76.9601 101.768 76.9601Z" fill="#263238"/>
<path d="M125.36 78.2321C125.36 78.2321 123 79.6481 122.16 84.2081C119.32 83.0001 111.92 77.9521 111.864 74.3601C112.55 73.6515 113.312 73.021 114.136 72.4801C117.55 74.9789 121.338 76.9204 125.36 78.2321Z" fill="white"/>
<path d="M125.36 78.2321C126.599 78.5016 127.767 79.0311 128.786 79.7854C129.805 80.5398 130.652 81.5019 131.272 82.6081C134.128 81.3921 130.784 73.9921 128.712 73.1361C127.843 72.6327 126.86 72.3575 125.856 72.3361C125.856 72.3361 128.408 77.1921 125.36 78.2321Z" fill="white"/>
<path d="M105.6 75.4001L111.44 73.6001C111.633 73.534 111.845 73.5444 112.031 73.6292C112.217 73.714 112.363 73.8668 112.44 74.0561C113.864 77.3041 120.44 91.5601 129.752 99.3841C131.776 95.3991 132.779 90.9737 132.67 86.5054C132.561 82.037 131.344 77.6657 129.128 73.7841C129.09 73.7217 129.071 73.6501 129.072 73.5773C129.073 73.5045 129.094 73.4334 129.133 73.3719C129.172 73.3104 129.227 73.2611 129.293 73.2293C129.359 73.1975 129.432 73.1847 129.504 73.1921L137.232 73.8721C137.419 73.8839 137.596 73.9608 137.731 74.0894C137.867 74.2181 137.954 74.3903 137.976 74.5761C141.176 95.8161 144.84 106.864 144.84 106.864C144.84 115.36 144.272 125.104 144.232 134.064C144.232 134.314 144.133 134.555 143.956 134.732C143.778 134.909 143.538 135.008 143.288 135.008H107.2C106.954 135.008 106.718 134.914 106.541 134.744C106.363 134.574 106.258 134.342 106.248 134.096L105.184 108.048C105.184 108.048 115.72 92.3681 105.096 76.6801C105.011 76.5705 104.956 76.4406 104.936 76.3033C104.917 76.1659 104.933 76.0258 104.984 75.8967C105.035 75.7676 105.118 75.6539 105.226 75.5669C105.334 75.4798 105.463 75.4223 105.6 75.4001Z" fill="#407BFF"/>
<path opacity="0.2" d="M130.344 135.2C130.393 135.2 130.441 135.183 130.478 135.15C130.514 135.118 130.538 135.073 130.544 135.024C131.758 123.157 131.556 111.188 129.944 99.3681C129.94 99.3417 129.931 99.3163 129.917 99.2935C129.903 99.2706 129.885 99.2508 129.863 99.2352C129.842 99.2195 129.817 99.2083 129.791 99.2023C129.765 99.1963 129.738 99.1955 129.712 99.2001C129.661 99.2116 129.616 99.2419 129.587 99.2849C129.557 99.3278 129.545 99.3804 129.552 99.4321C131.155 111.215 131.353 123.146 130.144 134.976C130.139 135.03 130.156 135.084 130.191 135.125C130.225 135.167 130.274 135.194 130.328 135.2H130.344Z" fill="black"/>
<g opacity="0.2">
<path d="M106.632 75.08L110.52 73.896C118.472 89.504 121.12 109.36 118.392 132.936C118.288 133.84 118.184 134.768 118.184 135H114.184C114.184 134.552 114.256 133.904 114.424 132.48C117.088 109.376 114.472 90.064 106.632 75.08Z" fill="white"/>
<path d="M135.696 73.744C140.696 89.68 142.224 109.528 140.248 132.784C140.16 133.824 140.08 134.728 140.08 135H136.08C136.08 134.576 136.136 133.872 136.264 132.44C138.264 108.92 136.616 89.056 131.368 73.368L135.696 73.744Z" fill="white"/>
</g>
<path d="M113.776 57.6481C115.04 62.3761 116.576 71.0961 113.432 74.5601C115.02 75.9895 116.897 77.0591 118.937 77.6956C120.976 78.3322 123.129 78.5206 125.248 78.2481C129.376 77.8321 129.392 74.9361 128.36 73.4081C122.92 72.5441 122.76 68.5601 123.472 64.7601L113.776 57.6481Z" fill="#FFC3BD"/>
<path opacity="0.2" d="M117.728 60.552L123.464 64.752C123.289 65.6376 123.195 66.5373 123.184 67.44C121.112 67.304 118.152 65.272 117.792 63.152C117.609 62.2968 117.588 61.4151 117.728 60.552Z" fill="black"/>
<path d="M118.688 52.536C126.728 50.136 132.112 44.72 132.912 39.4C131.92 40.36 126.808 40.664 126.808 40.664C123.608 39.192 117.208 40.288 116.352 43.384C111.656 42.4 111.68 53.424 118.688 52.536Z" fill="#263238"/>
<path d="M112.712 50.4721C113.552 56.9361 113.712 60.7681 117.224 63.8561C122.504 68.4881 130.336 64.8881 131.448 58.2561C132.448 52.3041 130.912 42.7281 124.368 40.6561C122.918 40.1945 121.375 40.1077 119.882 40.4038C118.39 40.6999 116.997 41.3692 115.833 42.3494C114.669 43.3295 113.772 44.5885 113.226 46.0089C112.681 47.4293 112.504 48.9648 112.712 50.4721Z" fill="#FFC3BD"/>
<path d="M120.104 43.7361C119.536 47.0641 117.752 53.0241 113.616 54.9361C106.24 52.5361 104.904 45.9121 109.928 44.4081C114.952 42.9041 120.6 40.8001 120.104 43.7361Z" fill="#263238"/>
<path d="M114.744 50.088C122.744 47.512 128.872 42.976 128.736 36.712C127.76 37.688 125.096 38.4 125.096 38.4C123.496 36.392 107.952 36.136 108.808 46.2C106.04 46.4 107.752 51.096 114.744 50.088Z" fill="#263238"/>
<path d="M110.664 45.208C110.664 45.208 108.824 42.488 105.24 45.416C107.038 45.1877 108.853 45.1181 110.664 45.208Z" fill="#263238"/>
<path d="M110.4 44.976C110.4 44.976 107.76 45.352 107.552 41.592C108.405 42.798 109.357 43.93 110.4 44.976Z" fill="#263238"/>
<path d="M110.576 56.0561C110.873 56.8096 111.318 57.4962 111.884 58.0759C112.45 58.6555 113.126 59.1166 113.872 59.4321C115.872 60.2321 117.16 58.5281 116.832 56.4881C116.544 54.6561 115.152 52.0241 113.032 52.0561C112.567 52.0703 112.112 52.2 111.709 52.4334C111.307 52.6669 110.968 52.9968 110.725 53.3935C110.481 53.7902 110.34 54.2412 110.314 54.706C110.288 55.1708 110.378 55.6347 110.576 56.0561Z" fill="#FFC3BD"/>
<path d="M122.704 51.52C122.704 52.048 123.048 52.456 123.392 52.432C123.736 52.408 123.992 51.952 123.96 51.424C123.928 50.896 123.616 50.488 123.264 50.512C122.912 50.536 122.664 50.992 122.704 51.52Z" fill="#263238"/>
<path d="M128.688 51.056C128.728 51.584 129.032 51.992 129.384 51.968C129.736 51.944 129.976 51.488 129.944 50.96C129.912 50.432 129.6 50.024 129.256 50.048C128.912 50.072 128.656 50.528 128.688 51.056Z" fill="#263238"/>
<path d="M126.808 51.472C127.565 52.9847 128.529 54.3848 129.672 55.632C129.325 55.906 128.924 56.1032 128.495 56.2108C128.066 56.3184 127.619 56.3338 127.184 56.256L126.808 51.472Z" fill="#ED847E"/>
<path d="M124 59.9121C124.229 59.9318 124.459 59.9318 124.688 59.9121C124.728 59.9121 124.767 59.896 124.795 59.8675C124.824 59.839 124.84 59.8004 124.84 59.7601C124.84 59.7197 124.824 59.6811 124.795 59.6526C124.767 59.6241 124.728 59.6081 124.688 59.6081C124.032 59.6736 123.37 59.5831 122.755 59.3439C122.141 59.1048 121.591 58.7238 121.152 58.2321C121.138 58.2178 121.121 58.2065 121.102 58.1987C121.084 58.191 121.064 58.187 121.044 58.187C121.024 58.187 121.004 58.191 120.985 58.1987C120.967 58.2065 120.95 58.2178 120.936 58.2321C120.91 58.2636 120.896 58.3032 120.896 58.3441C120.896 58.3849 120.91 58.4245 120.936 58.4561C121.323 58.8915 121.794 59.2448 122.32 59.4949C122.847 59.745 123.418 59.8869 124 59.9121Z" fill="#263238"/>
<path d="M120.728 49.736C120.783 49.7367 120.837 49.7239 120.886 49.6988C120.935 49.6737 120.977 49.637 121.008 49.592C121.213 49.2576 121.494 48.9756 121.827 48.7687C122.16 48.5618 122.537 48.4355 122.928 48.4C123.011 48.3981 123.09 48.3648 123.149 48.3069C123.209 48.249 123.244 48.1708 123.248 48.088C123.248 48.0053 123.215 47.9259 123.157 47.8674C123.098 47.8089 123.019 47.776 122.936 47.776C122.439 47.8089 121.958 47.9605 121.532 48.2181C121.106 48.4756 120.748 48.8315 120.488 49.256C120.442 49.325 120.426 49.4092 120.443 49.4902C120.459 49.5712 120.507 49.6423 120.576 49.688C120.624 49.7124 120.675 49.7286 120.728 49.736Z" fill="#263238"/>
<path d="M131.128 48.8001C131.186 48.8157 131.246 48.8157 131.304 48.8001C131.377 48.7582 131.43 48.6894 131.452 48.6086C131.475 48.5278 131.465 48.4415 131.424 48.3681C131.188 47.9332 130.851 47.5611 130.442 47.2828C130.033 47.0045 129.563 46.828 129.072 46.7681C128.989 46.7657 128.908 46.7949 128.846 46.8498C128.783 46.9048 128.744 46.9814 128.736 47.0641C128.733 47.1053 128.738 47.1468 128.751 47.1859C128.764 47.2251 128.786 47.2611 128.813 47.2918C128.841 47.3225 128.875 47.3473 128.912 47.3645C128.95 47.3817 128.991 47.3911 129.032 47.3921C129.42 47.4375 129.792 47.5772 130.114 47.7989C130.436 48.0206 130.699 48.3176 130.88 48.6641C130.908 48.7047 130.945 48.7382 130.988 48.7618C131.031 48.7854 131.079 48.7986 131.128 48.8001Z" fill="#263238"/>
<path d="M162.152 104.72L167.544 100.72L168.96 108.024C168.96 108.024 163.936 111.288 162.36 108.632L162.152 104.72Z" fill="#FFC3BD"/>
<path d="M174.168 100.136L173.248 106.832L168.96 108.04L167.544 100.736L174.168 100.136Z" fill="#FFC3BD"/>
<path d="M98.5199 81.3521C97.1679 83.2321 96.0239 85.0481 94.8479 86.9521C93.6719 88.8561 92.5839 90.76 91.5359 92.744C90.4879 94.728 89.5199 96.744 88.6239 98.92C87.6731 101.188 86.9469 103.543 86.4559 105.952C86.1607 107.437 86.0799 108.956 86.2159 110.464C86.3139 111.466 86.562 112.448 86.9519 113.376C87.1917 113.94 87.4921 114.477 87.8479 114.976C87.9148 115.078 87.9897 115.174 88.0719 115.264L88.2719 115.488L88.6639 115.936C89.7198 117.05 90.9557 117.977 92.3199 118.68C93.5546 119.331 94.8701 119.815 96.2319 120.12C98.6754 120.662 101.19 120.81 103.68 120.56C104.863 120.44 106.038 120.253 107.2 120C108.36 119.755 109.504 119.437 110.624 119.048L109.624 114.208C105.792 114.152 101.624 113.728 98.6239 112.432C97.937 112.137 97.285 111.767 96.6799 111.328C96.1955 110.962 95.7693 110.525 95.4159 110.032L95.3039 109.856L95.2479 109.768C95.2479 109.832 95.3439 109.912 95.3759 109.936C95.4079 109.96 95.3759 109.936 95.3759 109.736C95.4097 109.114 95.5089 108.497 95.6719 107.896C96.1498 106.151 96.7871 104.453 97.5759 102.824C98.3759 101.064 99.3279 99.288 100.312 97.52C101.296 95.752 102.352 94 103.416 92.248C104.48 90.496 105.64 88.7361 106.704 87.1041L98.5199 81.3521Z" fill="#FFC3BD"/>
<path d="M101.768 76.96C95.744 78.824 88.376 96.16 88.376 96.16L103.032 102.92C105.517 98.7146 107.417 94.1904 108.68 89.472C109.4 86.784 107.04 75.336 101.768 76.96Z" fill="#263238"/>
<path d="M112.196 106.837L171 99.1575L177.487 148.832L118.682 156.511L112.196 106.837Z" fill="#263238"/>
<path opacity="0.1" d="M153.568 101.432L171.004 99.1549L177.49 148.829L160.054 151.106L153.568 101.432Z" fill="black"/>
<path d="M108.144 114.832L113.376 110.696L115.312 118.912C115.312 118.912 110.08 121.432 108.448 118.784L108.144 114.832Z" fill="#FFC3BD"/>
<path d="M118.848 110.664L120.128 117.536L115.312 118.912L113.376 110.696L118.848 110.664Z" fill="#FFC3BD"/>
<path d="M173.68 229.032H244.648V288.984H173.68V229.032Z" fill="#407BFF"/>
<path opacity="0.1" d="M223.608 229.032H244.648V288.984H223.608V229.032Z" fill="black"/>
<path d="M214.776 109.128H285.744V169.08H214.776V109.128Z" fill="#407BFF"/>
<path opacity="0.1" d="M255.976 109.128H285.744V169.08H255.976V109.128Z" fill="black"/>
<path d="M323.48 288.992H252.512L252.512 169.08H323.48V288.992Z" fill="#407BFF"/>
<path opacity="0.1" d="M269.6 206.928C267.36 223.928 257.56 228.392 252.544 249.704V187.936C262.928 177.12 271.816 189.92 269.6 206.928Z" fill="white"/>
<path opacity="0.1" d="M293.432 183.944C292.626 186.501 292.717 189.256 293.691 191.754C294.664 194.252 296.461 196.343 298.784 197.68C303.456 200.328 308.776 197.808 312.472 193.28C316.168 188.752 313.904 181.928 309.272 179.272C304.64 176.616 295.016 178.32 293.432 183.944Z" fill="white"/>
<path opacity="0.1" d="M315.744 261.6C322.352 241.64 314.104 215.592 298.512 211.088C282.92 206.584 276.544 219.2 273.552 226.4C260.848 237.984 256.288 268.328 273.552 276.28C278.992 283.952 309.136 281.552 315.744 261.6Z" fill="white"/>
<path opacity="0.1" d="M273.552 169.08H323.48V288.992H273.552V169.08Z" fill="black"/>
<path d="M167.584 169.08H227.536V229.032H167.584V169.08Z" fill="#407BFF"/>
<path opacity="0.4" d="M167.584 169.08H227.536V229.032H167.584V169.08Z" fill="white"/>
<path d="M270.601 163.318C262.916 155.632 262.916 143.172 270.601 135.486C278.287 127.8 290.747 127.8 298.433 135.486C306.118 143.172 306.118 155.632 298.433 163.318C290.747 171.003 278.287 171.003 270.601 163.318Z" fill="#407BFF"/>
<path opacity="0.4" d="M270.601 163.318C262.916 155.632 262.916 143.172 270.601 135.486C278.287 127.8 290.747 127.8 298.433 135.486C306.118 143.172 306.118 155.632 298.433 163.318C290.747 171.003 278.287 171.003 270.601 163.318Z" fill="black"/>
</svg>
