<svg width="162" height="29" viewBox="0 0 162 29" fill="none" xmlns="http://www.w3.org/2000/svg">
<path d="M24 2H1C0.446875 2 0 2.44687 0 3V26C0 26.5531 0.446875 27 1 27H24C24.5531 27 25 26.5531 25 26V3C25 2.44687 24.5531 2 24 2ZM12.5344 14.6906L6.53438 19.7219C6.37188 19.8594 6.125 19.7437 6.125 19.5312V17.5719C6.125 17.5 6.15937 17.4281 6.21562 17.3813L9.64688 14.5L6.21562 11.6187C6.1869 11.5961 6.16379 11.5671 6.14807 11.534C6.13235 11.501 6.12446 11.4647 6.125 11.4281V9.46875C6.125 9.25625 6.37188 9.14062 6.53438 9.27812L12.5344 14.3062C12.6562 14.4062 12.6562 14.5906 12.5344 14.6906ZM18.875 19.5312C18.875 19.6688 18.7687 19.7812 18.6406 19.7812H12.8594C12.7312 19.7812 12.625 19.6688 12.625 19.5312V18.0312C12.625 17.8938 12.7312 17.7812 12.8594 17.7812H18.6406C18.7687 17.7812 18.875 17.8938 18.875 18.0312V19.5312Z" fill="#339AF0"/>
<path d="M34.68 18.82H35.88C36.93 21.91 38.82 24.7 41.55 24.7C42.96 24.7 44.49 23.74 44.49 22C44.49 17.53 33.72 16.42 33.72 10.6C33.72 6.55 36.87 4.6 41.13 4.6C43.56 4.6 46.17 5.2 48.03 6.85L46.11 9.94H44.91C44.49 7.96 43.11 5.23 40.41 5.23C38.97 5.23 37.65 6.31 37.65 7.9C37.65 12.46 48.75 13.81 48.75 19.51C48.75 23.65 45.27 25.3 41.1 25.3C38.07 25.3 34.71 24.37 32.79 21.91L34.68 18.82ZM57.9809 23.05H59.1809C58.4009 24.79 56.9909 25.3 55.1909 25.3C51.8609 25.3 50.6609 23.62 50.6609 20.44L50.6309 11.11L47.9309 11.14C48.8909 10.81 49.8809 10.51 50.8709 10.18L53.9309 6.25H55.1309V10.12H58.8509V11.32L55.1309 10.72V20.02C55.1309 21.22 54.9509 24.1 56.5409 24.07C57.1709 24.04 57.6209 23.56 57.9809 23.05ZM69.2337 25L69.0837 23.83C67.7037 24.85 66.3837 25.33 64.6437 25.33C62.0937 25.33 59.8137 24.37 59.8137 21.46C59.8137 17.32 65.8737 16.66 68.9037 16.06C68.9037 14.32 69.2337 10.24 66.9237 10.24C65.0937 10.24 64.1637 13.03 63.7737 14.62H62.5737C62.3937 14.32 60.6837 11.74 60.6837 11.5C62.4837 10.54 64.8237 9.82 66.8637 9.82C70.2537 9.82 73.3737 11.14 73.3737 15.01V21.97C73.3737 23.26 73.4037 24.49 74.8737 25H69.2337ZM66.7437 23.86C67.4337 23.86 68.3937 23.38 68.9637 22.51L68.9037 16.66C66.6237 17.2 64.5537 18.31 64.5537 21.25C64.5537 22.42 65.1837 23.86 66.7437 23.86ZM74.9545 25C76.1845 24.52 76.7245 23.92 76.7245 22.57V13.48C76.7245 12.43 76.4545 11.32 75.2845 11.08L81.1945 9.85V12.1C82.3345 10.54 83.8645 9.82 85.4845 9.82L87.3445 13.03H86.1745C85.6645 12.7 85.0345 12.52 84.3745 12.52C83.0245 12.52 81.6145 13.27 81.2245 15.01V22.72C81.2245 23.95 81.9145 24.58 82.9945 25H74.9545ZM96.8285 23.05H98.0285C97.2485 24.79 95.8385 25.3 94.0385 25.3C90.7085 25.3 89.5085 23.62 89.5085 20.44L89.4785 11.11L86.7785 11.14C87.7385 10.81 88.7285 10.51 89.7185 10.18L92.7785 6.25H93.9785V10.12H97.6985V11.32L93.9785 10.72V20.02C93.9785 21.22 93.7985 24.1 95.3885 24.07C96.0185 24.04 96.4685 23.56 96.8285 23.05ZM99.0513 18.19V17.2H111.441V18.19H99.0513ZM122.661 25.3C116.241 25.3 112.491 21.25 112.491 14.92C112.491 8.59 116.271 4.6 122.661 4.6C129.021 4.6 132.771 8.62 132.771 14.92C132.771 21.22 129.051 25.3 122.661 25.3ZM123.141 24.7C126.231 24.7 127.671 20.53 127.671 16.03C127.671 10.84 125.721 5.2 122.181 5.2C119.061 5.2 117.621 9.37 117.621 13.87C117.621 19.09 119.571 24.7 123.141 24.7ZM144.956 25L144.806 23.77C143.486 24.79 141.836 25.3 140.186 25.3C136.226 25.3 134.606 23.59 134.606 19.66V13.45C134.606 12.55 134.186 11.53 133.196 11.38L139.076 9.85L139.106 20.02C139.106 21.94 139.346 24.07 141.296 24.07C142.106 24.07 143.786 23.32 144.656 22.21L144.596 13.75C144.596 12.76 144.326 11.56 143.156 11.38L149.066 9.85L149.096 21.97C149.096 23.32 149.096 24.43 150.566 25H144.956ZM160.227 23.05H161.427C160.647 24.79 159.237 25.3 157.437 25.3C154.107 25.3 152.907 23.62 152.907 20.44L152.877 11.11L150.177 11.14C151.137 10.81 152.127 10.51 153.117 10.18L156.177 6.25H157.377V10.12H161.097V11.32L157.377 10.72V20.02C157.377 21.22 157.197 24.1 158.787 24.07C159.417 24.04 159.867 23.56 160.227 23.05Z" fill="#339AF0"/>
</svg>
